<svg width="14" height="13" viewBox="0 0 14 13" fill="none" xmlns="http://www.w3.org/2000/svg">
<path fill-rule="evenodd" clip-rule="evenodd" d="M2.51378 1.03399C2.42805 0.954394 2.28906 0.954393 2.20334 1.03399C0.816827 2.32147 0.66083 4.35973 1.83732 5.81634L2.51531 6.65575C3.7425 8.17512 5.19602 9.52482 6.83226 10.6644L7.73625 11.2939C9.30491 12.3864 11.5 12.2415 12.8865 10.954C12.9722 10.8744 12.9722 10.7454 12.8865 10.6658L10.8903 8.81217C10.6854 8.62193 10.3532 8.62193 10.1483 8.81217L9.47989 9.43288C9.18778 9.70413 8.74152 9.77137 8.37203 9.59982C6.33369 8.65345 4.6809 7.11871 3.66173 5.22597C3.47698 4.88287 3.5494 4.46849 3.84151 4.19725L4.50997 3.57654C4.71485 3.38629 4.71485 3.07785 4.50997 2.88761L2.51378 1.03399ZM1.46142 0.345065C1.95689 -0.115021 2.76022 -0.115022 3.2557 0.345065L5.2519 2.19868C5.86653 2.7694 5.86653 3.69474 5.2519 4.26547L4.62921 4.84368C5.5393 6.50555 6.99402 7.85636 8.78373 8.70145L9.40642 8.12324C10.0211 7.55251 11.0176 7.55251 11.6322 8.12324L13.6284 9.97685C14.1239 10.4369 14.1239 11.1829 13.6284 11.643C11.8727 13.2733 9.09309 13.4567 7.10671 12.0733L6.20272 11.4438C4.48694 10.2489 2.96276 8.83356 1.67592 7.24033L0.997933 6.40092C-0.491854 4.55642 -0.294316 1.97539 1.46142 0.345065Z" fill="white" fill-opacity="0.65"/>
</svg>
