<svg width="12" height="14" viewBox="0 0 12 14" fill="none" xmlns="http://www.w3.org/2000/svg">
<path fill-rule="evenodd" clip-rule="evenodd" d="M4.88461 1.24501C4.42678 1.5554 3.88971 2.02694 3.13653 2.68961L2.33654 3.39347C1.48404 4.14353 1.15742 4.44247 0.983001 4.83173C0.808582 5.22099 0.800027 5.67009 0.800027 6.82262V10.3047C0.800027 11.0905 0.800877 11.6386 0.855039 12.0521C0.907654 12.4538 1.00389 12.6665 1.1515 12.8181C1.2991 12.9696 1.50634 13.0684 1.89769 13.1224C2.30054 13.178 2.83446 13.1788 3.60001 13.1788H8.39999C9.16554 13.1788 9.69946 13.178 10.1023 13.1224C10.4937 13.0684 10.7009 12.9696 10.8485 12.8181C10.9961 12.6665 11.0923 12.4538 11.145 12.0521C11.1991 11.6386 11.2 11.0905 11.2 10.3047V6.82262C11.2 5.67009 11.1914 5.22099 11.017 4.83173C10.8426 4.44247 10.516 4.14353 9.66346 3.39347L8.86347 2.68961C8.11029 2.02694 7.57322 1.5554 7.11539 1.24501C6.66691 0.940975 6.33579 0.821174 6 0.821174C5.66421 0.821174 5.33309 0.940975 4.88461 1.24501ZM4.44373 0.5598C4.96253 0.208079 5.44798 0 6 0C6.55202 0 7.03747 0.208079 7.55627 0.5598C8.06087 0.901892 8.63559 1.40756 9.36311 2.04766L10.1841 2.76999C10.2086 2.79152 10.2328 2.81279 10.2567 2.83381C11.0114 3.4975 11.4872 3.91594 11.7438 4.4886C12.0004 5.06124 12.0002 5.70442 12 6.72453C12 6.75684 12 6.78954 12 6.82262V10.3347C12 11.0834 12 11.6869 11.9378 12.1615C11.8733 12.6543 11.7352 13.0692 11.4142 13.3987C11.0932 13.7282 10.689 13.87 10.2089 13.9362C9.74654 14 9.15864 14 8.42927 14H3.57073C2.84136 14 2.25347 14 1.79109 13.9362C1.31103 13.87 0.906835 13.7282 0.585815 13.3987C0.264794 13.0692 0.126718 12.6543 0.0621767 12.1615C1.13435e-05 11.6869 2.02123e-05 11.0834 3.12271e-05 10.3348L3.15132e-05 6.82262C3.15132e-05 6.78954 2.34547e-05 6.75684 1.54916e-05 6.72452C-0.000236182 5.70442 -0.000394881 5.06124 0.256194 4.4886C0.512783 3.91595 0.988627 3.4975 1.74334 2.83382C1.76725 2.81279 1.79144 2.79152 1.81591 2.76999L2.6369 2.04765C3.36441 1.40755 3.93913 0.90189 4.44373 0.5598Z" fill="white" fill-opacity="0.65"/>
<path fill-rule="evenodd" clip-rule="evenodd" d="M3.60001 9.48354C3.60001 8.80326 4.13727 8.25178 4.80001 8.25178H7.19999C7.86273 8.25178 8.39999 8.80326 8.39999 9.48354V13.5894C8.39999 13.8162 8.2209 14 7.99999 14C7.77908 14 7.59999 13.8162 7.59999 13.5894V9.48354C7.59999 9.25678 7.42091 9.07296 7.19999 9.07296H4.80001C4.57909 9.07296 4.40001 9.25678 4.40001 9.48354V13.5894C4.40001 13.8162 4.22092 14 4.00001 14C3.7791 14 3.60001 13.8162 3.60001 13.5894V9.48354Z" fill="white" fill-opacity="0.65"/>
</svg>
