<svg width="14" height="14" viewBox="0 0 14 14" fill="none" xmlns="http://www.w3.org/2000/svg">
<path d="M5.33333 1C5.33333 0.447715 5.78105 0 6.33333 0H7.66667C8.21895 0 8.66667 0.447715 8.66667 1V3.01754C8.66667 3.38573 8.36819 3.68421 8 3.68421C7.63181 3.68421 7.33333 3.98269 7.33333 4.35088V5.63158C7.33333 6.18386 7.78105 6.63158 8.33333 6.63158H10.6667C11.1971 6.63158 11.7058 6.86447 12.0809 7.27903C12.456 7.69358 12.6667 8.25584 12.6667 8.8421V9.64912C12.6667 10.0173 12.9651 10.3158 13.3333 10.3158C13.7015 10.3158 14 10.6143 14 10.9825V13C14 13.5523 13.5523 14 13 14H11.6667C11.1144 14 10.6667 13.5523 10.6667 13V10.9825C10.6667 10.6143 10.9651 10.3158 11.3333 10.3158C11.7015 10.3158 12 10.0173 12 9.64912V8.8421C12 8.45126 11.8595 8.07642 11.6095 7.80005C11.3594 7.52368 11.0203 7.36842 10.6667 7.36842H8.33333C7.78105 7.36842 7.33333 7.81614 7.33333 8.36842V9.64912C7.33333 10.0173 7.63181 10.3158 8 10.3158C8.36819 10.3158 8.66667 10.6143 8.66667 10.9825V13C8.66667 13.5523 8.21895 14 7.66667 14H6.33333C5.78105 14 5.33333 13.5523 5.33333 13V10.9825C5.33333 10.6143 5.63181 10.3158 6 10.3158C6.36819 10.3158 6.66667 10.0173 6.66667 9.64912V8.36842C6.66667 7.81614 6.21895 7.36842 5.66667 7.36842H3.33333C2.97971 7.36842 2.64057 7.52368 2.39052 7.80005C2.14048 8.07642 2 8.45126 2 8.8421V9.64912C2 10.0173 2.29848 10.3158 2.66667 10.3158C3.03486 10.3158 3.33333 10.6143 3.33333 10.9825V13C3.33333 13.5523 2.88562 14 2.33333 14H0.999999C0.447715 14 0 13.5523 0 13V10.9825C0 10.6143 0.298477 10.3158 0.666667 10.3158C1.03486 10.3158 1.33333 10.0173 1.33333 9.64912V8.8421C1.33333 8.25584 1.54405 7.69358 1.91912 7.27903C2.29419 6.86447 2.8029 6.63158 3.33333 6.63158H5.66667C6.21895 6.63158 6.66667 6.18386 6.66667 5.63158V4.35088C6.66667 3.98269 6.36819 3.68421 6 3.68421C5.63181 3.68421 5.33333 3.38573 5.33333 3.01754V1ZM7 2.94737C7.55228 2.94737 8 2.49965 8 1.94737V1.73684C8 1.18456 7.55228 0.736842 7 0.736842C6.44772 0.736842 6 1.18456 6 1.73684V1.94737C6 2.49965 6.44772 2.94737 7 2.94737ZM1.66667 13.2632C2.21895 13.2632 2.66667 12.8154 2.66667 12.2632V12.0526C2.66667 11.5003 2.21895 11.0526 1.66667 11.0526C1.11438 11.0526 0.666667 11.5003 0.666667 12.0526V12.2632C0.666667 12.8154 1.11438 13.2632 1.66667 13.2632ZM7 13.2632C7.55228 13.2632 8 12.8154 8 12.2632V12.0526C8 11.5003 7.55228 11.0526 7 11.0526C6.44772 11.0526 6 11.5003 6 12.0526V12.2632C6 12.8154 6.44772 13.2632 7 13.2632ZM12.3333 13.2632C12.8856 13.2632 13.3333 12.8154 13.3333 12.2632V12.0526C13.3333 11.5003 12.8856 11.0526 12.3333 11.0526C11.781 11.0526 11.3333 11.5003 11.3333 12.0526V12.2632C11.3333 12.8154 11.781 13.2632 12.3333 13.2632Z" fill="white" fill-opacity="0.65"/>
</svg>
