<svg width="14" height="10" viewBox="0 0 14 10" fill="none" xmlns="http://www.w3.org/2000/svg">
<path fill-rule="evenodd" clip-rule="evenodd" d="M3.67576 2.80855e-07H10.3242C11.0751 -1.03104e-05 11.6803 -1.88385e-05 12.1563 0.0597559C12.6504 0.121816 13.0665 0.254582 13.397 0.563257C13.7274 0.871932 13.8696 1.26059 13.936 1.72218C14 2.16678 14 2.73206 14 3.43338V6.56662C14 7.26794 14 7.83323 13.936 8.27782C13.8696 8.73942 13.7274 9.12807 13.397 9.43674C13.0665 9.74542 12.6504 9.87819 12.1563 9.94024C11.6803 10 11.0751 10 10.3242 10H3.67577C2.92493 10 2.31973 10 1.84375 9.94024C1.34957 9.87819 0.93348 9.74542 0.603016 9.43674C0.272552 9.12807 0.130414 8.73942 0.0639739 8.27782C-2.01683e-05 7.83322 -1.10382e-05 7.26793 3.00681e-07 6.5666V3.4334C-1.10382e-05 2.73207 -2.01683e-05 2.16678 0.0639739 1.72218C0.130414 1.26059 0.272552 0.871932 0.603016 0.563257C0.93348 0.254582 1.34957 0.121816 1.84375 0.0597559C2.31973 -1.88385e-05 2.92492 -1.03104e-05 3.67576 2.80855e-07ZM1.95348 0.822127C1.55062 0.872719 1.33729 0.965255 1.18534 1.10719C1.03339 1.24911 0.934322 1.44838 0.88016 1.82468C0.824404 2.21204 0.82353 2.72543 0.82353 3.46154V6.53846C0.82353 7.27457 0.824404 7.78796 0.88016 8.17532C0.934322 8.55162 1.03339 8.75089 1.18534 8.89282C1.33729 9.03475 1.55062 9.12728 1.95348 9.17787C2.36818 9.22995 2.91781 9.23077 3.70588 9.23077H10.2941C11.0822 9.23077 11.6318 9.22995 12.0465 9.17787C12.4494 9.12728 12.6627 9.03475 12.8147 8.89282C12.9666 8.75089 13.0657 8.55162 13.1198 8.17532C13.1756 7.78796 13.1765 7.27457 13.1765 6.53846V3.46154C13.1765 2.72543 13.1756 2.21204 13.1198 1.82468C13.0657 1.44838 12.9666 1.24911 12.8147 1.10719C12.6627 0.965255 12.4494 0.872719 12.0465 0.822127C11.6318 0.770048 11.0822 0.769231 10.2941 0.769231H3.70588C2.91781 0.769231 2.36818 0.770048 1.95348 0.822127Z" fill="white" fill-opacity="0.65"/>
<path fill-rule="evenodd" clip-rule="evenodd" d="M6.07927 5.76923L0.227619 3.03632L0.595912 2.3483L6.44756 5.08121C6.79533 5.24363 7.20467 5.24363 7.55244 5.08121L13.4041 2.3483L13.7724 3.03632L7.92073 5.76923C7.34112 6.03993 6.65888 6.03993 6.07927 5.76923Z" fill="white" fill-opacity="0.65"/>
</svg>
