<svg width="14" height="14" viewBox="0 0 14 14" fill="none" xmlns="http://www.w3.org/2000/svg">
<path fill-rule="evenodd" clip-rule="evenodd" d="M5.6875 0.875C3.02963 0.875 0.875 3.02963 0.875 5.6875C0.875 8.34537 3.02963 10.5 5.6875 10.5C8.34537 10.5 10.5 8.34537 10.5 5.6875C10.5 3.02963 8.34537 0.875 5.6875 0.875ZM0 5.6875C0 2.54638 2.54638 0 5.6875 0C8.82862 0 11.375 2.54638 11.375 5.6875C11.375 8.82862 8.82862 11.375 5.6875 11.375C2.54638 11.375 0 8.82862 0 5.6875Z" fill="white" fill-opacity="0.65"/>
<path fill-rule="evenodd" clip-rule="evenodd" d="M10.6281 10.6281C10.799 10.4573 11.076 10.4573 11.2469 10.6281L13.8719 13.2531C14.0427 13.424 14.0427 13.701 13.8719 13.8719C13.701 14.0427 13.424 14.0427 13.2531 13.8719L10.6281 11.2469C10.4573 11.076 10.4573 10.799 10.6281 10.6281Z" fill="white" fill-opacity="0.65"/>
</svg>
