<svg width="14" height="10" viewBox="0 0 14 10" fill="none" xmlns="http://www.w3.org/2000/svg">
<path fill-rule="evenodd" clip-rule="evenodd" d="M0.41637 6.35483C-0.13879 5.5209 -0.13879 4.4791 0.41637 3.64517C0.615659 3.34581 0.945817 3.13611 1.32564 3.06765L2.47706 2.8601L3.90948 1.31088C4.30002 0.888491 4.61663 0.546045 4.88233 0.326916C5.13431 0.119098 5.46869 -0.0872464 5.8531 0.038191C6.23752 0.163629 6.34782 0.515077 6.39379 0.820117C6.44225 1.14176 6.44224 1.58752 6.44223 2.13734V7.86266C6.44224 8.41248 6.44225 8.85824 6.39379 9.17988C6.34782 9.48492 6.23752 9.83637 5.8531 9.96181C5.46869 10.0872 5.13431 9.8809 4.88233 9.67308C4.61664 9.45396 4.30002 9.11151 3.90949 8.68912L2.47706 7.1399L1.32564 6.93235C0.945818 6.86388 0.615659 6.65419 0.41637 6.35483ZM1.00553 3.96377C0.580918 4.60159 0.580918 5.39841 1.00553 6.03623C1.10522 6.18598 1.27038 6.29088 1.46039 6.32513L2.62362 6.53481C2.76987 6.56117 2.90169 6.63187 2.99717 6.73513L4.41878 8.27265C4.83221 8.71979 5.11916 9.02903 5.34616 9.21624C5.45869 9.30905 5.53451 9.35282 5.58273 9.37096C5.60434 9.37909 5.61486 9.37991 5.61679 9.38C5.61679 9.38 5.61756 9.38009 5.61921 9.37955C5.62085 9.37902 5.62115 9.37871 5.62115 9.37871C5.62257 9.37752 5.6303 9.37062 5.64113 9.35191C5.66529 9.31015 5.69244 9.23278 5.71297 9.09655C5.75437 8.82175 5.75516 8.41862 5.75516 7.83657V2.16343C5.75516 1.58137 5.75437 1.17825 5.71297 0.903448C5.69244 0.767222 5.66529 0.689848 5.64113 0.648094C5.6303 0.629378 5.6228 0.622686 5.62138 0.621495L5.6206 0.620931L5.61921 0.620447C5.61717 0.619782 5.61679 0.619995 5.61679 0.619995C5.61486 0.620095 5.60434 0.620905 5.58273 0.629036C5.53451 0.647175 5.45869 0.690948 5.34616 0.783756C5.11916 0.97097 4.83221 1.28021 4.41878 1.72735L2.99717 3.26487C2.90169 3.36813 2.76987 3.43882 2.62362 3.46519L1.46039 3.67487C1.27038 3.70912 1.10522 3.81402 1.00553 3.96377Z" fill="white" fill-opacity="0.65"/>
<path fill-rule="evenodd" clip-rule="evenodd" d="M8.97201 2.59171C9.10617 2.4708 9.32368 2.4708 9.45784 2.59171C10.1629 3.22714 10.5607 4.08796 10.5646 4.98658C10.5685 5.88521 10.1783 6.74882 9.47881 7.38924C9.34571 7.5111 9.1282 7.51265 8.99299 7.39269C8.85778 7.27273 8.85607 7.07669 8.98916 6.95483C9.56145 6.43085 9.88077 5.72426 9.87756 4.98902C9.87434 4.25378 9.54885 3.54948 8.97201 3.02958C8.83785 2.90867 8.83785 2.71263 8.97201 2.59171Z" fill="white" fill-opacity="0.65"/>
<path fill-rule="evenodd" clip-rule="evenodd" d="M11.8036 1.2781C11.9378 1.15719 12.1553 1.15719 12.2895 1.2781C13.3791 2.26013 13.9939 3.59048 14 4.97926C14.006 6.36805 13.4029 7.70272 12.3219 8.69246C12.1888 8.81432 11.9713 8.81587 11.8361 8.69591C11.7009 8.57595 11.6991 8.37992 11.8322 8.25805C12.786 7.38476 13.3182 6.2071 13.3129 4.9817C13.3075 3.7563 12.765 2.58247 11.8036 1.71597C11.6695 1.59506 11.6695 1.39902 11.8036 1.2781Z" fill="white" fill-opacity="0.65"/>
</svg>
