<svg width="14" height="10" viewBox="0 0 14 10" fill="none" xmlns="http://www.w3.org/2000/svg">
<path fill-rule="evenodd" clip-rule="evenodd" d="M7 7.30769C8.25109 7.30769 9.2653 6.2745 9.2653 5C9.2653 3.7255 8.25109 2.69231 7 2.69231C5.74891 2.69231 4.73469 3.7255 4.73469 5C4.73469 6.2745 5.74891 7.30769 7 7.30769ZM7 8.07692C8.66812 8.07692 10.0204 6.69934 10.0204 5C10.0204 3.30066 8.66812 1.92308 7 1.92308C5.33187 1.92308 3.97959 3.30066 3.97959 5C3.97959 6.69934 5.33187 8.07692 7 8.07692Z" fill="white" fill-opacity="0.65"/>
<path fill-rule="evenodd" clip-rule="evenodd" d="M3.50171 2.09728C2.46943 2.85386 1.63353 3.77554 1.10863 4.42474C0.788196 4.82107 0.755102 4.88961 0.755102 5C0.755102 5.11039 0.788196 5.17893 1.10863 5.57525C1.63353 6.22446 2.46943 7.14614 3.50171 7.90272C4.53697 8.66149 5.7376 9.23077 7 9.23077C8.2624 9.23077 9.46303 8.66149 10.4983 7.90272C11.5306 7.14615 12.3665 6.22446 12.8914 5.57526C13.2118 5.17893 13.2449 5.11039 13.2449 5C13.2449 4.88961 13.2118 4.82107 12.8914 4.42475C12.3665 3.77554 11.5306 2.85386 10.4983 2.09728C9.46303 1.33851 8.2624 0.769231 7 0.769231C5.7376 0.769231 4.53697 1.33851 3.50171 2.09728ZM3.06072 1.47286C4.16244 0.665387 5.51706 0 7 0C8.48294 0 9.83756 0.665387 10.9393 1.47286C12.044 2.28252 12.9268 3.25864 13.4742 3.9357C13.4891 3.95404 13.5039 3.97228 13.5186 3.99044C13.7682 4.29769 14 4.58303 14 5C14 5.41697 13.7682 5.70231 13.5186 6.00955C13.5039 6.02771 13.4891 6.04595 13.4742 6.0643C12.9268 6.74136 12.044 7.71748 10.9393 8.52714C9.83756 9.33461 8.48294 10 7 10C5.51706 10 4.16244 9.33461 3.06072 8.52714C1.95602 7.71748 1.07319 6.74136 0.525777 6.0643C0.510943 6.04596 0.496127 6.02772 0.481373 6.00955C0.231792 5.70231 -2.25038e-08 5.41697 0 5C2.25038e-08 4.58303 0.231793 4.29768 0.481374 3.99044C0.496128 3.97228 0.510944 3.95404 0.525778 3.9357C1.07319 3.25864 1.95602 2.28252 3.06072 1.47286Z" fill="white" fill-opacity="0.65"/>
</svg>
