<svg width="16" height="18" viewBox="0 0 16 18" fill="none" xmlns="http://www.w3.org/2000/svg">
<path fill-rule="evenodd" clip-rule="evenodd" d="M15.3073 2.73826L9.35058 0.26822C8.48813 -0.0894066 7.51187 -0.0894069 6.64942 0.26822L0.692664 2.73826C0.272454 2.91251 0 3.31229 0 3.75463V9.56311C0 11.7058 1.06948 13.7165 2.87151 14.9619L6.67146 17.5881C7.46619 18.1373 8.53381 18.1373 9.32854 17.5881L13.1285 14.9619C14.9305 13.7165 16 11.7058 16 9.56311V3.75463C16 3.31229 15.7275 2.91251 15.3073 2.73826ZM12.321 7.03381C12.7153 6.55694 12.6354 5.86108 12.1425 5.47958C11.6496 5.09808 10.9304 5.1754 10.5362 5.65228L6.76238 10.2164L5.37955 8.87845C4.93324 8.44662 4.20962 8.44662 3.76331 8.87845C3.31699 9.31028 3.31699 10.0104 3.76331 10.4422L5.59758 12.217C6.32006 12.916 7.51012 12.8522 8.1484 12.0803L12.321 7.03381Z" fill="white"/>
</svg>
