<svg width="22" height="25" viewBox="0 0 22 25" fill="none" xmlns="http://www.w3.org/2000/svg">
<path fill-rule="evenodd" clip-rule="evenodd" d="M21.0476 3.80315L12.857 0.372528C11.6712 -0.124176 10.3288 -0.124176 9.14295 0.372528L0.952413 3.80315C0.374624 4.04515 0 4.6004 0 5.21476V13.2821C0 16.258 1.47053 19.0507 3.94833 20.7804L9.17325 24.4279C10.266 25.1907 11.734 25.1907 12.8267 24.4279L18.0517 20.7804C20.5295 19.0507 22 16.258 22 13.2821V5.21476C22 4.6004 21.6254 4.04515 21.0476 3.80315ZM16.9414 9.76918C17.4835 9.10685 17.3736 8.1404 16.6959 7.61053C16.0183 7.08067 15.0294 7.18806 14.4872 7.85038L9.29827 14.1894L7.39688 12.3312C6.7832 11.7314 5.78823 11.7314 5.17455 12.3312C4.56087 12.9309 4.56087 13.9034 5.17455 14.5031L7.69667 16.968C8.69008 17.9389 10.3264 17.8503 11.204 16.7782L16.9414 9.76918Z" fill="#F3745A"/>
</svg>
