<svg width="22" height="24" viewBox="0 0 22 24" fill="none" xmlns="http://www.w3.org/2000/svg">
<path fill-rule="evenodd" clip-rule="evenodd" d="M4.88889 6C4.88889 2.68629 7.62493 0 11 0C14.3751 0 17.1111 2.68629 17.1111 6V7.2C17.1111 7.86274 16.5639 8.4 15.8889 8.4C15.2139 8.4 14.6667 7.86274 14.6667 7.2V6C14.6667 4.01178 13.025 2.4 11 2.4C8.97496 2.4 7.33333 4.01178 7.33333 6V7.2C7.33333 7.86274 6.78613 8.4 6.11111 8.4C5.4361 8.4 4.88889 7.86274 4.88889 7.2V6Z" fill="#3E96FC"/>
<path fill-rule="evenodd" clip-rule="evenodd" d="M1.07394 7.05442C0 8.10883 0 9.80589 0 13.2V14.4C0 18.9255 0 21.1882 1.43192 22.5941C2.86384 24 5.16849 24 9.77778 24H12.2222C16.8315 24 19.1362 24 20.5681 22.5941C22 21.1882 22 18.9255 22 14.4V13.2C22 9.80589 22 8.10883 20.9261 7.05442C19.8521 6 18.1236 6 14.6667 6H7.33333C3.87637 6 2.14788 6 1.07394 7.05442ZM11 15.6C11.675 15.6 12.2222 15.0627 12.2222 14.4C12.2222 13.7373 11.675 13.2 11 13.2C10.325 13.2 9.77778 13.7373 9.77778 14.4C9.77778 15.0627 10.325 15.6 11 15.6ZM14.6667 14.4C14.6667 15.9675 13.6463 17.3009 12.2222 17.7952V20.4H9.77778V17.7952C8.35365 17.3009 7.33333 15.9675 7.33333 14.4C7.33333 12.4118 8.97496 10.8 11 10.8C13.025 10.8 14.6667 12.4118 14.6667 14.4Z" fill="#3E96FC"/>
</svg>
