<svg width="22" height="21" viewBox="0 0 22 21" fill="none" xmlns="http://www.w3.org/2000/svg">
<path d="M8.56218 3.61488C9.48689 1.33127 9.94925 0.189457 10.7004 0.0312078C10.8979 -0.0104026 11.1021 -0.0104026 11.2996 0.0312078C12.0508 0.189457 12.5131 1.33127 13.4378 3.61488C13.9637 4.91353 14.2266 5.56286 14.7186 6.0045C14.8566 6.12838 15.0064 6.2387 15.1659 6.33393C15.7345 6.67344 16.4444 6.73641 17.8641 6.86237C20.2674 7.07558 21.4691 7.18219 21.8361 7.86091C21.9121 8.00147 21.9637 8.15367 21.9889 8.31116C22.1106 9.07161 21.2272 9.86776 19.4604 11.4601L18.9697 11.9022C18.1437 12.6467 17.7307 13.0189 17.4918 13.4834C17.3485 13.7621 17.2525 14.0622 17.2074 14.3717C17.1324 14.8877 17.2533 15.4277 17.4952 16.5076L17.5816 16.8935C18.0154 18.8302 18.2323 19.7986 17.9615 20.2745C17.7184 20.7021 17.2704 20.9758 16.7755 20.9992C16.2246 21.0253 15.4484 20.3987 13.8959 19.1455C12.8731 18.3199 12.3617 17.9071 11.7939 17.7458C11.2751 17.5985 10.7249 17.5985 10.2061 17.7458C9.63834 17.9071 9.12693 18.3199 8.10409 19.1455C6.55161 20.3987 5.77536 21.0253 5.22446 20.9992C4.72961 20.9758 4.28165 20.7021 4.03845 20.2745C3.7677 19.7986 3.98459 18.8302 4.41837 16.8935L4.5048 16.5076C4.74668 15.4277 4.86762 14.8877 4.79257 14.3717C4.74755 14.0622 4.65146 13.7621 4.50816 13.4834C4.26928 13.0189 3.85627 12.6467 3.03026 11.9023L2.53962 11.4601C0.772817 9.86776 -0.110586 9.0716 0.0110717 8.31116C0.0362681 8.15367 0.0879408 8.00147 0.163941 7.8609C0.5309 7.18219 1.73257 7.07558 4.1359 6.86237C5.55561 6.73641 6.26547 6.67344 6.83411 6.33393C6.99361 6.2387 7.14341 6.12838 7.2814 6.0045C7.77339 5.56286 8.03632 4.91353 8.56218 3.61488Z" fill="#33D1B5"/>
</svg>
