<svg width="18" height="24" viewBox="0 0 18 24" fill="none" xmlns="http://www.w3.org/2000/svg">
<path d="M14.7703 10.0969C15.3187 8.56875 16.8984 4.14844 16.8984 2.73281C16.8984 1.48594 16.1625 0.440625 14.85 0.440625C12.7593 0.440625 10.8843 6.61406 10.2984 8.08594C9.84371 6.75 7.71558 0 5.84058 0C4.38277 0 3.69839 1.07344 3.69839 2.42344C3.69839 4.07812 5.30152 8.36719 5.88277 10.0172C5.58746 9.90938 5.26871 9.81562 4.94527 9.81562C3.84839 9.81562 2.68121 11.1797 2.68121 12.2812C2.68121 12.6984 2.91089 13.2844 3.05621 13.6734C1.32652 14.1422 0.660894 15.2953 0.660894 17.0344C0.656206 20.4187 3.86246 24 8.37183 24C13.9031 24 17.3437 19.8469 17.3437 14.4891C17.3437 12.4688 17.0203 10.6453 14.7703 10.0969ZM13.1109 5.0625C13.2984 4.48594 14.1 2.04844 14.85 2.04844C15.2531 2.04844 15.3609 2.46563 15.3609 2.79844C15.3609 3.69375 13.5515 8.63906 13.1531 9.73594L11.5593 9.45469L13.1109 5.0625ZM5.17027 2.26406C5.17027 1.70625 5.84996 0.121875 7.34058 4.47188L8.96246 9.17344C8.23121 9.1125 7.66402 9.03281 7.30308 9.23906C6.79214 7.88906 5.17027 3.62812 5.17027 2.26406ZM5.06246 11.4375C6.43589 11.4375 8.20777 15.8719 8.20777 16.4719C8.20777 16.7109 7.97808 17.0062 7.71089 17.0062C6.73121 17.0062 4.10621 13.4016 4.10621 12.4266C4.11089 12.0656 4.70152 11.4375 5.06246 11.4375ZM13.7015 20.1703C12.3375 21.6703 10.5937 22.4484 8.55933 22.4484C5.77496 22.4484 3.57652 20.9203 2.51714 18.3094C1.71558 16.275 2.69527 15.1078 3.48277 15.1078C4.01714 15.1078 6.02808 17.9344 6.02808 18.5344C6.02808 18.7641 5.66714 18.9234 5.47964 18.9234C4.72496 18.9234 4.42964 18.1969 3.08433 16.5141C1.69214 17.9062 4.04527 20.5875 5.81714 20.5875C7.04058 20.5875 7.83746 19.4531 7.59839 18.6188C7.77183 18.6188 7.98746 18.6328 8.14683 18.5906C8.19839 19.8609 8.57339 21.375 10.1015 21.4828C10.1015 21.4406 10.1953 21.15 10.1953 21.1359C10.1953 20.3203 9.69839 19.6078 9.69839 18.7781C9.69839 17.4516 10.7156 16.1672 11.7468 15.4172C12.1218 15.1359 12.5765 14.9625 13.0171 14.8031C13.4718 14.6297 13.9546 14.4281 14.3015 14.0812C14.25 13.5562 14.0343 13.0922 13.5093 13.0922C12.2109 13.0922 7.85621 13.2797 7.85621 11.2313C7.85621 10.9172 7.86089 10.6172 8.67183 10.6172C10.1859 10.6172 14.0296 10.9922 15.1546 11.9813C16.0031 12.7359 16.2937 17.2875 13.7015 20.1703ZM9.07964 14.2641C9.53433 14.4094 10.0031 14.4516 10.4718 14.5453C10.125 14.7984 9.81558 15.1078 9.52027 15.4406C9.38902 15.0422 9.22964 14.6531 9.07964 14.2641Z" fill="white" fill-opacity="0.65"/>
</svg>
