<svg width="14" height="16" viewBox="0 0 14 16" fill="none" xmlns="http://www.w3.org/2000/svg">
<path d="M1.49949 0.648917L2.37484 0.197016C3.19577 -0.226257 4.20318 0.0517441 4.72882 0.84626L5.77544 2.42914C6.23076 3.1184 6.20807 4.02671 5.71946 4.6741L4.35745 6.47635C4.6204 7.36711 5.09189 8.20675 5.77108 8.9954C6.41886 9.76006 7.21696 10.3891 8.11812 10.8453L9.96483 9.86209C10.6644 9.49042 11.5242 9.62875 12.0963 10.2054L13.4315 11.5483C14.0976 12.2191 14.1897 13.2876 13.6477 14.0487L13.0674 14.8644C12.489 15.6763 11.5316 16.1016 10.5547 15.9793C8.24664 15.692 5.88208 14.0575 3.45754 11.0766C1.0295 8.09097 -0.120188 5.398 0.00992068 3.00085C0.0644357 1.99213 0.630575 1.09708 1.49949 0.648917Z" fill="white" fill-opacity="0.65"/>
</svg>
