<svg width="14" height="16" viewBox="0 0 14 16" fill="none" xmlns="http://www.w3.org/2000/svg">
<path d="M7 0C8.72391 0 10.3772 0.693765 11.5962 1.92867C12.8152 3.16358 13.5 4.83848 13.5 6.58491C13.5 9.36745 11.57 12.3999 7.76 15.7146C7.54815 15.899 7.27804 16.0002 6.99875 16C6.71947 15.9998 6.44953 15.898 6.238 15.7133L5.986 15.4917C2.34467 12.2635 0.5 9.30532 0.5 6.58491C0.5 4.83848 1.18482 3.16358 2.40381 1.92867C3.62279 0.693765 5.27609 0 7 0ZM7 4.05225C6.33696 4.05225 5.70107 4.31908 5.23223 4.79405C4.76339 5.26901 4.5 5.9132 4.5 6.58491C4.5 7.25661 4.76339 7.9008 5.23223 8.37576C5.70107 8.85073 6.33696 9.11756 7 9.11756C7.66304 9.11756 8.29893 8.85073 8.76777 8.37576C9.23661 7.9008 9.5 7.25661 9.5 6.58491C9.5 5.9132 9.23661 5.26901 8.76777 4.79405C8.29893 4.31908 7.66304 4.05225 7 4.05225Z" fill="white" fill-opacity="0.65"/>
</svg>
