<svg width="36" height="36" viewBox="0 0 36 36" fill="none" xmlns="http://www.w3.org/2000/svg">
<path d="M32.7273 11.4533C33.5953 11.4533 34.4277 11.7982 35.0414 12.412C35.6552 13.0257 36 13.8582 36 14.7262V21.272C36 22.14 35.6552 22.9725 35.0414 23.5863C34.4277 24.2001 33.5953 24.5449 32.7273 24.5449H30.9895C30.5905 27.7086 29.0508 30.618 26.6592 32.7271C24.2676 34.8362 21.1886 35.9999 18 36V32.7271C20.6039 32.7271 23.1012 31.6926 24.9425 29.8513C26.7838 28.0099 27.8182 25.5125 27.8182 22.9084V13.0898C27.8182 10.4857 26.7838 7.9883 24.9425 6.14695C23.1012 4.30559 20.6039 3.27113 18 3.27113C15.3961 3.27113 12.8988 4.30559 11.0575 6.14695C9.21623 7.9883 8.18182 10.4857 8.18182 13.0898V24.5449H3.27273C2.40475 24.5449 1.57232 24.2001 0.95856 23.5863C0.344804 22.9725 0 22.14 0 21.272V14.7262C0 13.8582 0.344804 13.0257 0.95856 12.412C1.57232 11.7982 2.40475 11.4533 3.27273 11.4533H5.01055C5.40987 8.28993 6.94977 5.38095 9.3413 3.27223C11.7328 1.16352 14.8116 0 18 0C21.1884 0 24.2672 1.16352 26.6587 3.27223C29.0502 5.38095 30.5901 8.28993 30.9895 11.4533H32.7273ZM11.0618 24.1931L12.7964 21.4176C14.3559 22.3947 16.1597 22.9114 18 22.9084C19.8403 22.9114 21.6441 22.3947 23.2036 21.4176L24.9382 24.1931C22.8588 25.4959 20.4538 26.1851 18 26.1813C15.5462 26.1851 13.1412 25.4959 11.0618 24.1931Z" fill="#3E96FC"/>
</svg>
