<svg width="36" height="36" viewBox="0 0 36 36" fill="none" xmlns="http://www.w3.org/2000/svg">
<path d="M19.8 10.8C21.2322 10.8 22.6057 11.3689 23.6184 12.3816C24.6311 13.3943 25.2 14.7678 25.2 16.2C25.2 16.6774 25.3896 17.1352 25.7272 17.4728C26.0648 17.8104 26.5226 18 27 18C27.4774 18 27.9352 17.8104 28.2728 17.4728C28.6104 17.1352 28.8 16.6774 28.8 16.2C28.8 13.8131 27.8518 11.5239 26.164 9.83604C24.4761 8.14821 22.1869 7.2 19.8 7.2C19.3226 7.2 18.8648 7.38964 18.5272 7.72721C18.1896 8.06477 18 8.52261 18 9C18 9.47739 18.1896 9.93523 18.5272 10.2728C18.8648 10.6104 19.3226 10.8 19.8 10.8Z" fill="#3E96FC"/>
<path d="M19.8 3.6C23.1417 3.6 26.3466 4.9275 28.7095 7.29045C31.0725 9.65341 32.4 12.8583 32.4 16.2C32.4 16.6774 32.5896 17.1352 32.9272 17.4728C33.2648 17.8104 33.7226 18 34.2 18C34.6774 18 35.1352 17.8104 35.4728 17.4728C35.8104 17.1352 36 16.6774 36 16.2C36 11.9035 34.2932 7.78296 31.2551 4.74487C28.217 1.70678 24.0965 0 19.8 0C19.3226 0 18.8648 0.189642 18.5272 0.527208C18.1896 0.864773 18 1.32261 18 1.8C18 2.27739 18.1896 2.73523 18.5272 3.07279C18.8648 3.41036 19.3226 3.6 19.8 3.6ZM35.55 25.038C35.451 24.749 35.2801 24.49 35.0534 24.2853C34.8266 24.0807 34.5515 23.937 34.254 23.868L23.454 21.402C23.1608 21.3355 22.8557 21.3435 22.5664 21.4253C22.2772 21.507 22.013 21.6599 21.798 21.87C21.546 22.104 21.528 22.122 20.358 24.354C16.4758 22.5651 13.365 19.4415 11.592 15.552C13.878 14.4 13.896 14.4 14.13 14.13C14.3401 13.915 14.493 13.6508 14.5747 13.3615C14.6565 13.0723 14.6645 12.7672 14.598 12.474L12.132 1.8C12.063 1.50245 11.9193 1.22737 11.7147 1.00064C11.51 0.773914 11.251 0.603004 10.962 0.504C10.5416 0.353861 10.1076 0.245341 9.666 0.18C9.21105 0.0745113 8.7468 0.0142188 8.28 0C6.08401 0 3.97796 0.872355 2.42516 2.42516C0.872355 3.97796 0 6.08401 0 8.28C0.00952545 15.6289 2.93308 22.674 8.12952 27.8705C13.326 33.0669 20.3711 35.9905 27.72 36C28.8073 36 29.884 35.7858 30.8886 35.3697C31.8932 34.9536 32.806 34.3437 33.5748 33.5748C34.3437 32.806 34.9536 31.8932 35.3697 30.8886C35.7858 29.884 36 28.8073 36 27.72C36.0005 27.2618 35.9644 26.8044 35.892 26.352C35.8163 25.9049 35.7019 25.4652 35.55 25.038ZM27.72 32.4C21.3244 32.3952 15.1922 29.8525 10.6698 25.3301C6.1475 20.8078 3.60477 14.6756 3.6 8.28C3.60474 7.04025 4.09933 5.85262 4.97598 4.97598C5.85262 4.09933 7.04025 3.60474 8.28 3.6H8.874L10.8 11.952L9.828 12.456C8.28 13.266 7.056 13.914 7.704 15.318C8.7592 18.3052 10.4666 21.0199 12.7021 23.2648C14.9377 25.5097 17.6452 27.2284 20.628 28.296C22.14 28.908 22.734 27.774 23.544 26.208L24.066 25.218L32.4 27.126V27.72C32.3953 28.9598 31.9007 30.1474 31.024 31.024C30.1474 31.9007 28.9597 32.3953 27.72 32.4Z" fill="#3E96FC"/>
</svg>
