<svg width="170" height="170" viewBox="0 0 170 170" fill="none" xmlns="http://www.w3.org/2000/svg">
<path d="M105 37L97 37M101 33L101 41" stroke="#DBE0E7" stroke-width="2" stroke-linecap="round"/>
<path d="M137 37L129 37M133 33L133 41" stroke="#DBE0E7" stroke-width="2" stroke-linecap="round"/>
<path d="M72.9998 37L64.9998 37M68.9998 33L68.9998 41" stroke="#DBE0E7" stroke-width="2" stroke-linecap="round"/>
<path d="M40.9998 37L32.9998 37M36.9998 33L36.9998 41" stroke="#3E96FC" stroke-width="2" stroke-linecap="round"/>
<path d="M9 37L1 37M5 33L5 41" stroke="#DBE0E7" stroke-width="2" stroke-linecap="round"/>
<path d="M9 101L1 101M5 97L5 105" stroke="#F3745A" stroke-width="2" stroke-linecap="round"/>
<path d="M9 133L1 133M5 129L5 137" stroke="#DBE0E7" stroke-width="2" stroke-linecap="round"/>
<path d="M9 165L1 165M5 161L5 169" stroke="#DBE0E7" stroke-width="2" stroke-linecap="round"/>
<path d="M40.9998 101L32.9998 101M36.9998 97L36.9998 105" stroke="#DBE0E7" stroke-width="2" stroke-linecap="round"/>
<path d="M73 101L65 101M69 97L69 105" stroke="#DBE0E7" stroke-width="2" stroke-linecap="round"/>
<path d="M40.9998 133L32.9998 133M36.9998 129L36.9998 137" stroke="#DBE0E7" stroke-width="2" stroke-linecap="round"/>
<path d="M40.9998 165L32.9998 165M36.9998 161L36.9998 169" stroke="#DBE0E7" stroke-width="2" stroke-linecap="round"/>
<path d="M73 133L65 133M69 129L69 137" stroke="#3E96FC" stroke-width="2" stroke-linecap="round"/>
<path d="M105 5L97 5M101 1L101 9" stroke="#F3745A" stroke-width="2" stroke-linecap="round"/>
<path d="M169 5L161 5M165 1L165 9" stroke="#3E96FC" stroke-width="2" stroke-linecap="round"/>
<path d="M72.9998 5L64.9998 5M68.9998 1L68.9998 9" stroke="#DBE0E7" stroke-width="2" stroke-linecap="round"/>
<path d="M137 5L129 5M133 1L133 9" stroke="#DBE0E7" stroke-width="2" stroke-linecap="round"/>
<path d="M40.9998 5L32.9998 5M36.9998 1L36.9998 9" stroke="#DBE0E7" stroke-width="2" stroke-linecap="round"/>
<path d="M9 5L1 5M5 1L5 9" stroke="#DBE0E7" stroke-width="2" stroke-linecap="round"/>
<path d="M9 69L1 69M5 65L5 73" stroke="#DBE0E7" stroke-width="2" stroke-linecap="round"/>
<path d="M40.9998 69L32.9998 69M36.9998 65L36.9998 73" stroke="#DBE0E7" stroke-width="2" stroke-linecap="round"/>
<path d="M72.9998 69L64.9998 69M68.9998 65L68.9998 73" stroke="#DBE0E7" stroke-width="2" stroke-linecap="round"/>
<path d="M105 69L97 69M101 65L101 73" stroke="#DBE0E7" stroke-width="2" stroke-linecap="round"/>
</svg>
