<svg width="101" height="19" viewBox="0 0 101 19" fill="none" xmlns="http://www.w3.org/2000/svg">
<path d="M20.2868 5.52526C16.6353 5.52526 13.7821 8.30407 13.7821 12.024C13.7821 15.7441 16.5632 18.4991 20.2868 18.4991C24.0104 18.4991 26.8398 15.6965 26.8398 12.0003C26.8398 8.32783 24.0588 5.52526 20.2868 5.52526ZM20.3114 15.8182C18.232 15.8182 16.7083 14.1992 16.7083 12.025C16.7083 9.82608 18.2074 8.20802 20.2868 8.20802C22.3908 8.20802 23.9137 9.85077 23.9137 12.025C23.9137 14.1992 22.3908 15.8182 20.3114 15.8182ZM27.6373 8.35253H29.451V18.2585H32.3525V5.76674H27.6373V8.35253ZM6.48002 8.20709C8.00377 8.20709 9.21271 9.14923 9.67167 10.5505H12.7429C12.1863 7.55493 9.72004 5.52526 6.50465 5.52526C2.85314 5.52526 0 8.30407 0 12.025C0 15.7459 2.78106 18.5 6.50465 18.5C9.64794 18.5 12.1626 16.4703 12.7192 13.45H9.67167C9.23645 14.8513 8.02748 15.8182 6.50375 15.8182C4.3997 15.8182 2.92521 14.1992 2.92521 12.025C2.92614 9.82608 4.37689 8.20709 6.48002 8.20709ZM82.7675 10.8167L80.6398 10.5029C79.6245 10.3584 78.8989 10.02 78.8989 9.22241C78.8989 8.35253 79.8424 7.91805 81.1235 7.91805C82.526 7.91805 83.4209 8.52176 83.6142 9.51235H86.4192C86.1044 6.99972 84.17 5.52616 81.1964 5.52616C78.1252 5.52616 76.0942 7.09669 76.0942 9.31935C76.0942 11.4451 77.4243 12.6781 80.1078 13.0641L82.2356 13.3778C83.2759 13.5223 83.8561 13.9339 83.8561 14.7068C83.8561 15.6974 82.8407 16.1081 81.4382 16.1081C79.721 16.1081 78.7539 15.4075 78.6088 14.3446H75.7556C76.0221 16.785 77.9319 18.5 81.4136 18.5C84.5816 18.5 86.6846 17.0502 86.6846 14.5614C86.6846 12.3387 85.1618 11.1789 82.7675 10.8167ZM30.9018 0.620738C29.8379 0.620738 29.0397 1.39364 29.0397 2.4565C29.0397 3.51936 29.8371 4.29226 30.9018 4.29226C31.9656 4.29226 32.7641 3.51936 32.7641 2.4565C32.7641 1.39364 31.9656 0.620738 30.9018 0.620738ZM73.4828 10.0438C73.4828 7.33814 71.8388 5.52616 68.3568 5.52616C65.0684 5.52616 63.2308 7.19364 62.8677 9.75473H65.7454C65.8904 8.76414 66.6642 7.94275 68.3085 7.94275C69.784 7.94275 70.5092 8.59491 70.5092 9.39253C70.5092 10.4316 69.1788 10.6969 67.5348 10.8661C65.3102 11.1075 62.5538 11.8804 62.5538 14.78C62.5538 17.0274 64.2225 18.4762 66.8825 18.4762C68.9617 18.4762 70.2674 17.6064 70.9208 16.2289C71.0176 17.4609 71.9364 18.2585 73.2183 18.2585H74.9108V15.6736H73.4837V10.0438H73.4828ZM70.6296 13.1848C70.6296 14.8522 69.1788 16.0843 67.4133 16.0843C66.325 16.0843 65.4062 15.6251 65.4062 14.6593C65.4062 13.4272 66.8813 13.0887 68.2356 12.9442C69.5413 12.8235 70.2665 12.5335 70.6296 11.9774V13.1848ZM55.2271 5.52526C53.6066 5.52526 52.2526 6.20212 51.2855 7.33724V0.5H48.384V18.2585H51.237V16.6158C52.2041 17.7993 53.583 18.5 55.2271 18.5C58.7088 18.5 61.3449 15.7459 61.3449 12.025C61.3449 8.30407 58.6605 5.52526 55.2271 5.52526ZM54.7919 15.8182C52.7124 15.8182 51.1888 14.1992 51.1888 12.025C51.1888 9.85077 52.7363 8.20802 54.8155 8.20802C56.9197 8.20802 58.394 9.82701 58.394 12.025C58.394 14.1992 56.8711 15.8182 54.7919 15.8182ZM41.4439 5.52526C39.558 5.52526 38.3244 6.29817 37.5992 7.3857V5.76674H34.7213V18.2576H37.6228V11.4689C37.6228 9.55991 38.8317 8.20709 40.6211 8.20709C42.2898 8.20709 43.329 9.39071 43.329 11.1066V18.2585H46.2305V10.8899C46.2316 7.74792 44.612 5.52526 41.4439 5.52526ZM100.516 11.6143C100.516 8.03879 97.9046 5.52616 94.3982 5.52616C90.6747 5.52616 87.9421 8.32876 87.9421 12.025C87.9421 15.9151 90.868 18.5 94.4468 18.5C97.4695 18.5 99.839 16.7118 100.443 14.1754H97.4201C96.9849 15.2867 95.9211 15.9151 94.4942 15.9151C92.6319 15.9151 91.2293 14.7553 90.9154 12.7256H100.515V11.6143H100.516ZM91.0851 10.6475C91.5453 8.90774 92.8507 8.06259 94.35 8.06259C95.994 8.06259 97.2515 9.00469 97.5416 10.6475H91.0851Z" fill="#0052ff"/>
</svg>
