<svg width="106" height="32" viewBox="0 0 106 32" fill="none" xmlns="http://www.w3.org/2000/svg">
<path d="M15.955 0.309326C7.17368 0.309326 0.0546875 7.36096 0.0546875 16.0594C0.0546875 24.7583 7.17368 31.8093 15.955 31.8093C24.7372 31.8093 31.8555 24.7583 31.8555 16.0594C31.8555 7.36153 24.7372 0.310078 15.9548 0.310078L15.955 0.309326ZM23.2467 23.0255C22.9619 23.4882 22.3506 23.6349 21.8835 23.3509C18.1503 21.092 13.4506 20.5805 7.91588 21.8331C7.38253 21.9534 6.8509 21.6224 6.72938 21.0939C6.60729 20.5654 6.94014 20.0388 7.47481 19.9184C13.5317 18.5477 18.7271 19.1379 22.9183 21.6751C23.3854 21.9591 23.5335 22.5628 23.2467 23.0255ZM25.1929 18.7369C24.8341 19.3147 24.0708 19.4971 23.4879 19.1417C19.2139 16.5394 12.6989 15.7858 7.6436 17.3058C6.98798 17.502 6.29553 17.136 6.09654 16.4877C5.89908 15.8382 6.26876 15.1536 6.92324 14.9562C12.6978 13.2206 19.8766 14.0613 24.7847 17.0489C25.3676 17.4044 25.5518 18.1604 25.1929 18.7371V18.7369ZM25.36 14.2712C20.2354 11.2561 11.7805 10.9788 6.88773 12.4498C6.10205 12.6859 5.27118 12.2465 5.03308 11.4682C4.79498 10.6896 5.23814 9.86711 6.02439 9.63051C11.6409 7.94156 20.9778 8.26788 26.8778 11.7374C27.586 12.1528 27.8177 13.0569 27.3981 13.756C26.9804 14.456 26.0652 14.6868 25.3608 14.2712H25.36ZM43.3141 14.8489C40.5686 14.2004 40.0806 13.7453 40.0806 12.7889C40.0806 11.8854 40.9388 11.2773 42.2167 11.2773C43.4546 11.2773 44.6812 11.7391 45.9685 12.6896C46.0065 12.7184 46.0558 12.7299 46.1033 12.7223C46.1527 12.7152 46.1944 12.689 46.2229 12.6497L47.5634 10.778C47.6185 10.7009 47.6033 10.5946 47.5292 10.5357C45.997 9.3183 44.273 8.72642 42.2565 8.72642C39.2927 8.72642 37.2212 10.4885 37.2212 13.0097C37.2212 15.7134 39.0079 16.6707 42.0951 17.4096C44.7211 18.009 45.1653 18.5112 45.1653 19.4087C45.1653 20.4037 44.2692 21.0224 42.8261 21.0224C41.2236 21.0224 39.9154 20.4864 38.4534 19.2338C38.4174 19.2018 38.368 19.1887 38.3224 19.1906C38.2731 19.1943 38.2294 19.2169 38.199 19.2526L36.6952 21.0243C36.6326 21.0996 36.6402 21.2086 36.7123 21.2726C38.4136 22.7772 40.5059 23.5709 42.7654 23.5709C45.959 23.5709 48.0229 21.8425 48.0229 19.1661C48.0286 16.9078 46.6634 15.6571 43.3198 14.8514L43.3141 14.8489ZM55.2494 12.1669C53.8652 12.1669 52.7298 12.7071 51.7918 13.8139V12.5681C51.7918 12.4697 51.7121 12.3896 51.6133 12.3896H49.1545C49.0558 12.3896 48.976 12.4697 48.976 12.5681V26.4109C48.976 26.5087 49.0558 26.5896 49.1545 26.5896H51.6133C51.7121 26.5896 51.7918 26.5087 51.7918 26.4109V22.0418C52.7298 23.0819 53.8652 23.5916 55.2494 23.5916C57.8221 23.5916 60.4271 21.6299 60.4271 17.8798C60.4309 14.129 57.8259 12.1668 55.2512 12.1668L55.2494 12.1669ZM57.5677 17.8798C57.5677 19.7886 56.381 21.1221 54.6797 21.1221C52.9994 21.1221 51.7311 19.7285 51.7311 17.8798C51.7311 16.031 52.9994 14.6377 54.6797 14.6377C56.3525 14.6375 57.5677 16.0007 57.5677 17.8796V17.8798ZM67.101 12.1669C63.7878 12.1669 61.1923 14.694 61.1923 17.9206C61.1923 21.1127 63.7707 23.6123 67.0612 23.6123C70.3858 23.6123 72.9889 21.0939 72.9889 17.8798C72.9889 14.6767 70.4029 12.1673 67.101 12.1673V12.1669ZM67.101 21.1409C65.339 21.1409 64.01 19.7379 64.01 17.8789C64.01 16.0115 65.2935 14.6564 67.0612 14.6564C68.8346 14.6564 70.1712 16.0589 70.1712 17.9197C70.1712 19.7868 68.8801 21.1409 67.101 21.1409ZM80.0635 12.3896H77.3578V9.65007C77.3578 9.55189 77.2781 9.47177 77.1793 9.47177H74.7205C74.6218 9.47177 74.5401 9.55189 74.5401 9.65007V12.3896H73.3592C73.2604 12.3896 73.1807 12.4697 73.1807 12.5681V14.6609C73.1807 14.759 73.2604 14.8394 73.3592 14.8394H74.5401V20.2551C74.5401 22.4424 75.6395 23.5521 77.8097 23.5521C78.6907 23.5521 79.4217 23.3715 80.1109 22.9841C80.1679 22.954 80.2021 22.8938 80.2021 22.8299V20.8362C80.2021 20.7761 80.1698 20.7178 80.1166 20.6858C80.0635 20.6519 79.997 20.65 79.942 20.6783C79.4692 20.9134 79.0116 21.0224 78.4989 21.0224C77.711 21.0224 77.3578 20.667 77.3578 19.8733V14.8403H80.0635C80.1622 14.8403 80.2419 14.7602 80.2419 14.6618V12.5692C80.2457 12.4709 80.166 12.3908 80.0654 12.3908L80.0635 12.3896ZM89.4886 12.4003V12.0639C89.4886 11.074 89.8722 10.6326 90.7304 10.6326C91.243 10.6326 91.655 10.7334 92.1164 10.8857C92.1734 10.9034 92.2322 10.8946 92.2778 10.8609C92.3253 10.8273 92.3519 10.7733 92.3519 10.7161V8.66416C92.3519 8.58573 92.3025 8.51633 92.2246 8.4932C91.7386 8.34969 91.1158 8.20243 90.1816 8.20243C87.9127 8.20243 86.7108 9.46895 86.7108 11.8638V12.3791H85.5298C85.4311 12.3791 85.3495 12.4592 85.3495 12.5574V14.6609C85.3495 14.759 85.4311 14.8394 85.5298 14.8394H86.7108V23.191C86.7108 23.2907 86.7925 23.3697 86.8912 23.3697H89.3481C89.4488 23.3697 89.5285 23.2907 89.5285 23.191V14.8399H91.824L95.3404 23.191C94.9417 24.0674 94.5487 24.2424 94.0132 24.2424C93.5803 24.2424 93.1227 24.1145 92.6576 23.8606C92.6139 23.838 92.5607 23.8342 92.5152 23.8474C92.4677 23.8643 92.4278 23.8982 92.4088 23.9433L91.5753 25.7545C91.5354 25.841 91.5696 25.9407 91.6531 25.9858C92.5227 26.4523 93.3069 26.6516 94.2771 26.6516C96.0923 26.6516 97.0967 25.8128 97.9796 23.5596L102.244 12.6441C102.267 12.5892 102.259 12.5271 102.225 12.4784C102.193 12.4301 102.138 12.4009 102.079 12.4009H99.5195C99.4416 12.4009 99.3733 12.4492 99.3486 12.5205L96.7265 19.9372L93.8556 12.5156C93.829 12.4466 93.7626 12.4009 93.6885 12.4009H89.4886V12.4003ZM84.0242 12.3896H81.5653C81.4666 12.3896 81.385 12.4697 81.385 12.5681V23.191C81.385 23.2907 81.4666 23.3697 81.5653 23.3697H84.0242C84.1229 23.3697 84.2045 23.2907 84.2045 23.191V12.5689C84.2045 12.4705 84.1248 12.3904 84.0242 12.3904V12.3896ZM82.809 7.55243C81.835 7.55243 81.0451 8.33333 81.0451 9.29799C81.0451 10.2632 81.835 11.0451 82.809 11.0451C83.783 11.0451 84.571 10.2632 84.571 9.29799C84.571 8.33352 83.7811 7.55243 82.809 7.55243ZM104.344 15.8053C103.372 15.8053 102.614 15.0314 102.614 14.0916C102.614 13.1517 103.381 12.3689 104.354 12.3689C105.326 12.3689 106.083 13.1427 106.083 14.0818C106.083 15.0216 105.316 15.8053 104.344 15.8053ZM104.354 12.5393C103.467 12.5393 102.797 13.2371 102.797 14.0916C102.797 14.9456 103.463 15.634 104.344 15.634C105.231 15.634 105.901 14.9368 105.901 14.0818C105.901 13.2277 105.235 12.5393 104.354 12.5393ZM104.737 14.258L105.227 14.9366H104.813L104.373 14.314H103.995V14.9366H103.649V13.1378H104.458C104.881 13.1378 105.159 13.3517 105.159 13.7116C105.16 14.0065 104.988 14.1867 104.739 14.258H104.737ZM104.445 13.4464H103.995V14.0154H104.445C104.669 14.0154 104.804 13.9065 104.804 13.7306C104.804 13.5456 104.669 13.4464 104.445 13.4464Z" fill="#1ED760"/>
</svg>
