<svg width="88" height="23" viewBox="0 0 88 23" fill="none" xmlns="http://www.w3.org/2000/svg">
<path d="M28.2559 9.05569C28.2559 7.50948 26.6919 5.86019 24.0853 5.86019C21.1659 5.86019 17.8294 8.02488 17.3081 12.3543C16.7867 16.6836 19.4976 18.6422 22.3128 18.6422C25.128 18.6422 26.4834 17.6114 27.9431 16.1682C26.6919 14.622 25.0237 15.3436 24.7109 15.4467C24.3981 15.6528 23.8768 15.859 23.0427 15.859C22 15.859 20.8531 15.3436 20.8531 13.3851C27.7346 12.6635 28.2559 10.6019 28.2559 9.05569ZM24.9194 9.26185C24.9194 9.77725 24.7109 10.6019 21.2701 11.0142C22 8.4372 23.3555 8.23104 23.981 8.23104C24.6066 8.33412 24.9194 8.74645 24.9194 9.26185ZM13.346 9.67417C13.346 9.67417 11.8863 14.2097 11.782 14.622C11.782 14.2097 10.6351 6.06635 10.6351 6.06635C8.1327 6.06635 6.77725 7.81872 6.15166 9.67417C6.15166 9.67417 4.37915 14.2097 4.27488 14.622C4.17062 14.3128 3.96209 9.77725 3.96209 9.77725C3.75355 7.50948 1.66825 6.06635 0 6.06635L2.08531 18.436C4.69194 18.436 6.15166 16.6836 6.88152 14.8282C6.88152 14.8282 8.4455 10.8081 8.54976 10.6019C8.54976 10.8081 9.69668 18.436 9.69668 18.436C12.3033 18.436 13.763 16.7867 14.4929 15.0344L18.1422 6.06635C15.4313 6.06635 14.0758 7.81872 13.346 9.67417ZM37.9526 5.75711C36.3886 5.75711 35.1374 6.58175 34.0948 7.9218L34.9289 0.5C32.7393 0.5 31.0711 2.35545 30.654 5.03554L28.9858 18.3329C30.237 18.3329 31.4882 18.0237 32.218 17.096C32.8436 17.9206 33.782 18.5391 35.1374 18.5391C38.7867 18.5391 41.2891 14.4159 41.2891 10.4988C41.3934 6.891 39.6209 5.75711 37.9526 5.75711ZM37.5355 12.1481C37.1185 14.3128 35.9716 15.7559 34.7204 15.7559C33.5735 15.7559 33.0521 15.2405 33.0521 15.2405C33.2607 13.3851 33.4692 12.1481 33.8863 11.1173C34.3033 10.0865 35.346 8.54028 36.3886 8.54028C37.4313 8.64336 37.9526 9.98341 37.5355 12.1481ZM50.4645 6.06635H47.9621V5.96327C48.1706 4.31398 48.4834 3.48934 49.8389 3.38626C50.673 3.28318 51.09 2.87085 51.1943 2.35545C51.2986 1.94313 51.5071 0.603081 51.5071 0.603081C46.3981 0.603081 44.8341 2.76777 44.4171 6.06635V6.16943H44.3128C43.4787 6.16943 42.5403 7.09716 42.436 8.23104L42.3318 8.64337H44L42.5403 20.1884L42.1232 22.25C42.2275 22.25 42.2275 22.25 42.3318 22.25C44.7299 22.1469 46.1896 20.2915 46.6066 17.6114L47.7536 8.54028H48.5877C49.3175 8.54028 50.2559 7.81872 50.4645 6.47867V6.06635ZM63.6019 5.86019C60.6825 5.86019 57.9716 8.02488 57.1374 11.3235C56.3033 14.622 57.5545 18.6422 61.8294 18.6422C66.1043 18.6422 68.6066 14.519 68.6066 11.1173C68.5024 7.71564 66.2085 5.86019 63.6019 5.86019ZM64.7488 12.045C64.6445 13.5912 63.9147 15.859 62.0379 15.859C60.1611 15.859 60.4739 13.1789 60.5782 11.9419C60.7867 10.6019 61.5166 8.64337 63.1848 8.64337C64.7488 8.64337 64.9573 10.3957 64.7488 12.045ZM82.9953 9.67417C82.9953 9.67417 81.5355 14.2097 81.4313 14.622C81.4313 14.2097 80.2844 6.06635 80.2844 6.06635C77.782 6.06635 76.4265 7.81872 75.8009 9.67417C75.8009 9.67417 74.0284 14.2097 73.9242 14.622C73.9242 14.3128 73.6114 9.77725 73.6114 9.77725C73.5071 7.50948 71.3175 6.16943 69.6493 6.16943L71.7346 18.5391C74.3412 18.5391 75.801 16.7867 76.5308 14.9313C76.5308 14.9313 78.0948 10.9111 78.1991 10.705C78.1991 10.9111 79.346 18.5391 79.346 18.5391C81.9526 18.5391 83.4123 16.8898 84.1422 15.1374L87.5829 6.06635C84.9763 6.06635 83.6208 7.81872 82.9953 9.67417ZM52.8626 0.603081L50.7773 17.5083L50.3602 19.5699C50.4645 19.5699 50.4645 19.5699 50.5687 19.5699C52.8626 19.5699 54.5308 17.5083 54.7393 15.0344L55.9905 5.34479C56.3033 2.45853 54.4265 0.603081 52.8626 0.603081Z" fill="#4353ff"/>
</svg>
