<svg width="74" height="17" viewBox="0 0 74 17" fill="none" xmlns="http://www.w3.org/2000/svg">
<path fill-rule="evenodd" clip-rule="evenodd" d="M60.1871 5.44792C60.4697 5.93215 60.5621 6.48307 60.5927 7.10243L60.6328 7.92795V13.7005L60.6738 14.5269C60.7557 15.8765 61.7578 16.8744 63.127 16.9593L63.9547 17V7.92795L63.9957 7.10243C64.0297 6.49 64.1213 5.92868 64.4082 5.44099C64.7006 4.94077 65.1203 4.52576 65.6252 4.23761C66.1302 3.94946 66.7025 3.79833 67.2849 3.79938C67.8672 3.80044 68.439 3.95364 68.9429 4.24361C69.4468 4.53358 69.865 4.95011 70.1555 5.45139C70.4381 5.93561 70.5262 6.49693 70.5602 7.10243L70.6012 7.92535V13.7005L70.6422 14.5269C70.7276 15.8834 71.7218 16.8813 73.0954 16.9593L73.9231 17V7.10243C73.9231 5.35226 73.2233 3.67375 71.9776 2.43595C70.7318 1.19816 69.0422 0.502424 67.2801 0.501735C66.337 0.500747 65.4045 0.699673 64.545 1.08522C63.6855 1.47077 62.9187 2.03407 62.2959 2.73748C61.6728 2.03435 60.906 1.47119 60.0466 1.08552C59.1871 0.699858 58.2548 0.500546 57.3117 0.500868C55.932 0.500868 54.6517 0.91666 53.5912 1.63477C52.9441 0.917526 51.4964 0.500868 50.6652 0.500868V17L51.4964 16.9593C52.8866 16.8683 53.8912 15.8973 53.9453 14.5269L53.9898 13.7005V7.92795L54.0308 7.10243C54.0657 6.47961 54.1529 5.93215 54.4363 5.44446C54.7289 4.94455 55.1485 4.52963 55.653 4.24113C56.1576 3.95263 56.7295 3.80065 57.3117 3.80035C57.8944 3.80047 58.4667 3.95276 58.9714 4.24194C59.4761 4.53112 59.8953 4.94702 60.1871 5.44792ZM3.32193 16.9602L4.15306 17H16.6114L16.5704 16.1771C16.4579 14.8206 15.4907 13.8296 14.1206 13.7412L13.2894 13.7005H5.81533L15.7802 3.79948L15.7392 2.97743C15.6747 1.60705 14.6665 0.616944 13.2894 0.541581L12.4583 0.504333L0 0.500868L0.0409899 1.32639C0.150006 2.66991 1.13115 3.68167 2.48992 3.75964L3.32193 3.80035H10.796L0.831135 13.7014L0.872125 14.5269C0.954105 15.8869 1.94222 16.8718 3.32193 16.9593V16.9602ZM47.4044 2.91592C48.1758 3.68195 48.7877 4.59141 49.2052 5.59235C49.6227 6.5933 49.8376 7.66613 49.8376 8.74957C49.8376 9.83301 49.6227 10.9058 49.2052 11.9068C48.7877 12.9077 48.1758 13.8172 47.4044 14.5832C45.8459 16.1299 43.7329 16.9987 41.5297 16.9987C39.3266 16.9987 37.2136 16.1299 35.6551 14.5832C32.4117 11.3617 32.4117 6.13744 35.6551 2.91592C36.4258 2.15015 37.3408 1.54266 38.3479 1.12814C39.355 0.713612 40.4344 0.500171 41.5245 0.500002C42.6164 0.499249 43.6977 0.712314 44.7067 1.12701C45.7156 1.54171 46.6323 2.1499 47.4044 2.91679V2.91592ZM45.054 5.25215C45.9882 6.18077 46.513 7.43983 46.513 8.7526C46.513 10.0654 45.9882 11.3244 45.054 12.253C44.1191 13.181 42.8514 13.7022 41.5297 13.7022C40.208 13.7022 38.9404 13.181 38.0055 12.253C37.0712 11.3244 36.5465 10.0654 36.5465 8.7526C36.5465 7.43983 37.0712 6.18077 38.0055 5.25215C38.9404 4.32424 40.208 3.803 41.5297 3.803C42.8514 3.803 44.1191 4.32424 45.054 5.25215ZM24.0925 0.500002C25.1827 0.500285 26.2621 0.713862 27.2692 1.12854C28.2763 1.54321 29.1912 2.15086 29.9619 2.91679C33.2062 6.13744 33.2062 11.3626 29.9619 14.5832C28.4034 16.1299 26.2904 16.9987 24.0872 16.9987C21.8841 16.9987 19.7711 16.1299 18.2126 14.5832C14.9692 11.3617 14.9692 6.13744 18.2126 2.91592C18.9833 2.15015 19.8983 1.54266 20.9054 1.12814C21.9125 0.713612 22.9919 0.500171 24.082 0.500002H24.0925ZM27.6115 5.25042C28.546 6.17908 29.0709 7.43832 29.0709 8.7513C29.0709 10.0643 28.546 11.3235 27.6115 12.2522C26.6765 13.1801 25.4089 13.7013 24.0872 13.7013C22.7655 13.7013 21.4979 13.1801 20.563 12.2522C19.6287 11.3236 19.104 10.0645 19.104 8.75173C19.104 7.43896 19.6287 6.17991 20.563 5.25129C21.4979 4.32337 22.7655 3.80213 24.0872 3.80213C25.4089 3.80213 26.6765 4.32337 27.6115 5.25129V5.25042Z" fill="#2D8CFF"/>
</svg>
