<svg width="118" height="48" viewBox="0 0 118 48" fill="none" xmlns="http://www.w3.org/2000/svg">
<path d="M12.1207 12.1293H27.8961C30.4809 12.0229 33.0587 12.4639 35.4551 13.4224C37.3316 14.2851 38.9652 15.5858 40.2141 17.2112C41.4967 18.9348 42.4214 20.8902 42.9353 22.9655C43.5133 25.2361 43.8004 27.5688 43.7898 29.9095C43.8958 32.9369 43.4506 35.9586 42.4752 38.8319C41.7141 40.8276 40.5209 42.6366 38.9783 44.1336C37.6505 45.4702 35.9995 46.4535 34.18 46.9914C32.123 47.6004 29.9912 47.931 27.8435 47.9741H12.0681V12.1293H12.1207ZM22.7559 20.25V39.8276H25.3852C27.0099 39.935 28.6381 39.674 30.1441 39.0647C31.1771 38.4461 31.9617 37.4962 32.3658 36.375C33.009 34.3611 33.2806 32.2502 33.1677 30.1422C33.1677 26.3578 32.5718 23.7715 31.3798 22.3836C30.1879 20.9957 28.2072 20.2974 25.4378 20.2888L22.7559 20.25Z" fill="white"/>
<path fill-rule="evenodd" clip-rule="evenodd" d="M51.4409 15.1291V12.4136H56.6994V17.961C55.9156 18.6471 55.0288 19.2097 54.0702 19.6291C53.1946 19.9425 52.2671 20.0916 51.3358 20.0688C50.2243 20.1131 49.1237 19.8391 48.1675 19.28C47.3014 18.7012 46.6361 17.8754 46.2613 16.9136C45.7941 15.7719 45.5661 14.5492 45.5909 13.3188C45.5572 12.0436 45.8085 10.7767 46.3271 9.60756C46.7709 8.60622 47.5256 7.7688 48.483 7.21532C49.409 6.75101 50.4422 6.53259 51.4804 6.5817C52.4002 6.53568 53.3202 6.66748 54.1885 6.96963C54.7921 7.2316 55.3107 7.65218 55.6871 8.18515C56.1 8.82 56.3856 9.52666 56.5285 10.267L53.2814 10.9783C53.179 10.5353 52.9348 10.1365 52.5846 9.84032C52.2361 9.56315 51.7967 9.42062 51.3489 9.43946C51.0013 9.4311 50.6573 9.50978 50.3492 9.66812C50.041 9.82646 49.7789 10.0593 49.5873 10.3446C49.0802 11.2338 48.8515 12.2505 48.93 13.267C48.8434 14.3131 49.072 15.361 49.5873 16.28C49.7949 16.5751 50.0748 16.8139 50.4011 16.9744C50.7273 17.1349 51.0895 17.2118 51.4541 17.1981C51.8225 17.2 52.1881 17.1343 52.5321 17.0041C52.9465 16.824 53.339 16.5984 53.7021 16.3317V15.1291H51.4409Z" fill="white"/>
<path fill-rule="evenodd" clip-rule="evenodd" d="M63.8903 16.8104L65.2049 17.0302C65.0889 17.9185 64.6883 18.7473 64.0612 19.3966C63.7607 19.6683 63.4085 19.8789 63.025 20.0165C62.6415 20.1541 62.2342 20.2159 61.8264 20.1983C61.3024 20.2138 60.7824 20.1043 60.3108 19.8791C59.8392 19.6539 59.43 19.3198 59.1183 18.9052C58.39 17.8487 58.0386 16.5844 58.1192 15.3104C58.0308 13.9774 58.3962 12.6535 59.1577 11.5474C59.4539 11.1357 59.8489 10.8023 60.3075 10.5767C60.7662 10.3511 61.2744 10.2404 61.7869 10.2543C62.2871 10.2487 62.781 10.3636 63.2256 10.589C63.6701 10.8144 64.0518 11.1435 64.3373 11.5474C65.0616 12.6251 65.4121 13.9043 65.3364 15.194C65.3364 15.2974 65.3364 15.4397 65.3364 15.6207H59.4732C59.463 16.4757 59.715 17.3139 60.1963 18.0259C60.3803 18.2826 60.6245 18.4919 60.9083 18.636C61.1921 18.7801 61.507 18.8547 61.8264 18.8535C62.0613 18.858 62.2949 18.817 62.5137 18.7327C62.7325 18.6483 62.9323 18.5224 63.1016 18.3621C63.4995 17.9227 63.7717 17.3872 63.8903 16.8104ZM59.5521 14.2242H63.9035C63.898 13.5926 63.7259 12.9732 63.4039 12.4268C63.2465 12.1593 63.0244 11.9343 62.7572 11.7717C62.4901 11.6091 62.1862 11.514 61.8726 11.4948C61.5591 11.4756 61.2456 11.5329 60.96 11.6617C60.6744 11.7904 60.4256 11.9866 60.2357 12.2328C59.7905 12.8041 59.5501 13.5043 59.5521 14.2242ZM66.9402 19.9009V10.4224H68.1234V11.7155C68.2778 11.3794 68.5002 11.0776 68.7771 10.8288C69.054 10.5799 69.3795 10.3892 69.7338 10.2682C70.0881 10.1472 70.4637 10.0985 70.8378 10.125C71.2118 10.1515 71.5765 10.2527 71.9095 10.4224C72.2761 10.6058 72.5817 10.8885 72.7903 11.2371C73.0006 11.6062 73.143 12.0089 73.211 12.4268C73.2631 12.9467 73.285 13.4691 73.2767 13.9914V19.8492H71.9621V14.2242C71.9844 13.7286 71.9357 13.2323 71.8175 12.75C71.7217 12.4404 71.5284 12.1686 71.2653 11.9742C71.0027 11.76 70.6731 11.6413 70.332 11.638C70.0546 11.6368 69.7803 11.6953 69.5283 11.8092C69.2763 11.9231 69.0525 12.0897 68.8727 12.2974C68.3786 13.0288 68.16 13.9071 68.2549 14.7802V19.9526L66.9402 19.9009ZM80.6517 16.8104L81.9663 17.0302C81.8557 17.92 81.4544 18.7505 80.8226 19.3966C80.5244 19.6679 80.1746 19.8784 79.7933 20.016C79.4119 20.1536 79.0067 20.2156 78.6009 20.1983C78.0749 20.2148 77.5526 20.1058 77.0787 19.8806C76.6049 19.6555 76.1934 19.3208 75.8796 18.9052C75.1613 17.8316 74.8282 16.5527 74.9331 15.2716C74.8527 13.9552 75.2078 12.6487 75.9454 11.5474C76.2416 11.1357 76.6365 10.8023 77.0952 10.5767C77.5538 10.3511 78.062 10.2404 78.5746 10.2543C79.0747 10.2487 79.5686 10.3636 80.0132 10.589C80.4578 10.8144 80.8395 11.1435 81.125 11.5474C81.8545 12.6227 82.2055 13.9037 82.1241 15.194C82.1241 15.2974 82.1241 15.4397 82.1241 15.6207H76.2477C76.2347 16.478 76.4919 17.3182 76.9839 18.0259C77.1671 18.2834 77.4112 18.4933 77.6952 18.6375C77.9792 18.7817 78.2945 18.8558 78.614 18.8535C79.0716 18.8608 79.5143 18.694 79.8498 18.388C80.2617 17.9462 80.5395 17.3996 80.6517 16.8104ZM76.3135 14.2242H80.6648C80.6585 13.6124 80.4957 13.0121 80.1916 12.4785C80.0262 12.1967 79.7887 11.9625 79.5027 11.7992C79.2167 11.6358 78.8922 11.549 78.5615 11.5474C78.2646 11.5449 77.9712 11.6102 77.7043 11.7381C77.4374 11.866 77.2043 12.053 77.0234 12.2845C76.5845 12.8411 76.336 13.5201 76.3135 14.2242ZM83.6885 19.9009V10.4224H84.8716V11.8837C85.0684 11.4052 85.3537 10.9667 85.713 10.5905C85.9492 10.3856 86.2525 10.2708 86.5675 10.2673C87.0497 10.3012 87.5091 10.482 87.8821 10.7845L87.4088 12.2716C87.1312 12.0678 86.7955 11.9547 86.4492 11.9483C86.1592 11.9476 85.8806 12.0591 85.6735 12.2587C85.424 12.498 85.2505 12.8035 85.174 13.138C85.0269 13.7567 84.9563 14.3906 84.9636 15.0259V20.0043L83.6885 19.9009ZM93.8242 18.7112C93.4238 19.1537 92.9421 19.5178 92.4044 19.7845C91.9466 19.9909 91.4487 20.0968 90.9451 20.0949C90.5825 20.1287 90.2166 20.0837 89.8736 19.9631C89.5305 19.8424 89.2187 19.649 88.9601 19.3966C88.4834 18.8568 88.2342 18.1584 88.2633 17.444C88.2549 16.9993 88.3446 16.5582 88.5262 16.1509C88.6803 15.7941 88.9139 15.4759 89.2098 15.2199C89.4939 14.9866 89.8192 14.8069 90.1695 14.6897C90.5583 14.5867 90.9535 14.509 91.3527 14.4569C92.1603 14.3603 92.9542 14.1738 93.719 13.9009V13.4742C93.7604 12.9873 93.6254 12.5018 93.3377 12.1035C93.1387 11.9135 92.9012 11.7669 92.6407 11.6733C92.3802 11.5797 92.1026 11.5412 91.8259 11.5604C91.3269 11.5187 90.83 11.6616 90.4324 11.9612C90.0695 12.3574 89.8399 12.8542 89.7751 13.3837L88.4605 13.1638C88.5412 12.5823 88.7425 12.0233 89.0521 11.5216C89.3357 11.0914 89.743 10.7538 90.2221 10.5518C90.7918 10.3167 91.4055 10.2021 92.0231 10.2155C92.5862 10.1981 93.1465 10.2995 93.6664 10.513C94.0307 10.6675 94.3478 10.9126 94.5866 11.2242C94.7987 11.5634 94.9375 11.9419 94.9942 12.3362C95.032 12.8269 95.032 13.3197 94.9942 13.8104V15.9569C94.9696 16.9062 95.0003 17.856 95.0862 18.8018C95.1385 19.1975 95.2447 19.5846 95.4017 19.9526H94.0871C93.9434 19.5701 93.8549 19.1696 93.8242 18.763V18.7112ZM93.719 15.1293C93.0267 15.426 92.2972 15.6304 91.5499 15.7371C91.151 15.7848 90.7613 15.8893 90.393 16.0474C90.1689 16.17 89.9861 16.3542 89.8672 16.5776C89.7431 16.8132 89.6799 17.0752 89.6831 17.3405C89.6758 17.5351 89.7081 17.7291 89.7781 17.9112C89.8481 18.0933 89.9543 18.2598 90.0906 18.4009C90.2435 18.5498 90.427 18.6649 90.6288 18.7385C90.8306 18.8121 91.046 18.8425 91.2606 18.8276C91.7477 18.839 92.2259 18.6988 92.6272 18.4272C93.0285 18.1555 93.3323 17.7662 93.4955 17.3147C93.6665 16.7976 93.7422 16.2545 93.719 15.7112V15.1293ZM97.0713 19.9009V6.80176H98.3859V19.9526L97.0713 19.9009Z" fill="white"/>
<path fill-rule="evenodd" clip-rule="evenodd" d="M58.106 40.8232V31.2931H59.2891V32.6508C59.4893 32.1637 59.8355 31.7482 60.2817 31.4594C60.7279 31.1707 61.2529 31.0224 61.7869 31.0344C62.244 31.0333 62.6947 31.1397 63.1015 31.3448C63.4645 31.5284 63.7658 31.8113 63.9691 32.1594C64.1795 32.5286 64.3219 32.9313 64.3898 33.3491C64.4311 33.8912 64.4399 34.4353 64.4161 34.9784V40.8232H63.1015V35.0301C63.1107 34.5548 63.0531 34.0805 62.9306 33.6207C62.8445 33.3099 62.6547 33.0366 62.3916 32.8448C62.1313 32.6492 61.8121 32.5445 61.4845 32.5474C61.2089 32.5455 60.9363 32.6036 60.6863 32.7177C60.4363 32.8317 60.215 32.9988 60.0384 33.2069C59.5443 33.9382 59.3257 34.8165 59.4206 35.6896V40.862L58.106 40.8232ZM65.9016 37.9784L67.2163 37.7198C67.2481 38.2631 67.4606 38.781 67.821 39.1939C68.0083 39.3676 68.2296 39.502 68.4715 39.5887C68.7133 39.6754 68.9706 39.7127 69.2276 39.6982C69.4666 39.7162 69.7068 39.6853 69.9331 39.6074C70.1594 39.5295 70.3668 39.4063 70.5422 39.2457C70.6869 39.1087 70.8013 38.9438 70.8782 38.7613C70.9551 38.5789 70.9929 38.3828 70.9892 38.1853C70.9964 38.0226 70.9645 37.8604 70.8959 37.7121C70.8274 37.5638 70.7242 37.4335 70.5948 37.3319C70.1834 37.0904 69.7414 36.9034 69.2802 36.7758C68.5902 36.587 67.9208 36.3314 67.282 36.0129C66.9185 35.7975 66.6262 35.4831 66.4406 35.1077C66.2412 34.7054 66.1421 34.2621 66.1514 33.8146C66.1471 33.4105 66.2277 33.0099 66.388 32.6379C66.5294 32.2953 66.7499 31.9898 67.0322 31.7456C67.2773 31.5324 67.5634 31.3697 67.8736 31.2672C68.2354 31.1359 68.6185 31.0702 69.0041 31.0732C69.5578 31.0639 70.1063 31.1789 70.608 31.4094C71.0276 31.5894 71.381 31.8919 71.6202 32.2758C71.8694 32.7369 72.0215 33.2427 72.0672 33.7629L70.7526 33.9827C70.7191 33.5492 70.5385 33.1394 70.2399 32.8189C70.0829 32.6726 69.8965 32.5603 69.6928 32.489C69.489 32.4177 69.2724 32.3892 69.0567 32.4051C68.5873 32.3529 68.1157 32.4828 67.7421 32.7672C67.6218 32.8784 67.5259 33.0126 67.4604 33.1616C67.3948 33.3106 67.3609 33.4712 67.3609 33.6336C67.3587 33.8299 67.4135 34.0228 67.5186 34.1896C67.6362 34.3793 67.8108 34.5284 68.0182 34.6163C68.396 34.7745 68.7822 34.9126 69.175 35.0301C69.841 35.2339 70.4912 35.4846 71.1207 35.7801C71.4855 35.9731 71.7866 36.2647 71.9883 36.6207C72.2127 37.0521 72.3213 37.5328 72.3038 38.0172C72.3057 38.5447 72.1747 39.0645 71.9226 39.5301C71.6717 39.9949 71.2878 40.377 70.8183 40.6293C70.3158 40.9023 69.749 41.0406 69.175 41.0301C68.7583 41.0584 68.3401 41.0043 67.945 40.8711C67.5498 40.7378 67.1859 40.5281 66.8744 40.2543C66.2925 39.6253 65.9369 38.8257 65.8622 37.9784H65.9016ZM78.9689 40.8232V39.4008C78.7618 39.8761 78.4197 40.2826 77.9837 40.5716C77.5477 40.8606 77.0362 41.0198 76.5106 41.0301C76.0516 41.0337 75.5992 40.9225 75.196 40.7069C74.8323 40.5195 74.5276 40.2378 74.3152 39.8922C74.1033 39.5203 73.9651 39.1122 73.9077 38.6896C73.8441 38.1922 73.8177 37.6908 73.8288 37.1896V31.2931H75.1434V36.5689C75.128 37.1347 75.1544 37.7009 75.2223 38.2629C75.2795 38.6433 75.4646 38.9938 75.7481 39.2586C76.0154 39.5038 76.3686 39.6381 76.7341 39.6336C77.1375 39.6281 77.5288 39.4968 77.8515 39.2586C78.1957 39.0068 78.449 38.6534 78.5745 38.25C78.7716 37.6481 78.8735 37.0201 78.8769 36.3879V31.2931H80.1915V40.8232H78.9689ZM82.2029 40.8232V31.2931H83.386V32.7543C83.5741 32.2744 83.8554 31.8352 84.2142 31.4612C84.4486 31.2515 84.752 31.1321 85.0687 31.125C85.5522 31.1536 86.0132 31.335 86.3834 31.6422L85.9232 33.1293C85.6456 32.9254 85.31 32.8124 84.9636 32.806C84.6742 32.808 84.3966 32.9191 84.188 33.1163C83.9494 33.3618 83.7815 33.6653 83.7015 33.9957C83.5545 34.6144 83.4839 35.2482 83.4912 35.8836V40.862L82.2029 40.8232ZM92.2597 39.6336C91.8611 40.0726 91.3844 40.4363 90.8531 40.7069C90.3972 40.9201 89.8986 41.0305 89.3938 41.0301C89.0291 41.053 88.6639 40.9952 88.3249 40.8609C87.9859 40.7266 87.6819 40.5193 87.4351 40.2543C86.9679 39.7106 86.7282 39.0126 86.7646 38.3017C86.7579 37.8572 86.8475 37.4164 87.0275 37.0086C87.1816 36.6518 87.4152 36.3336 87.7111 36.0775C87.9917 35.8464 88.3124 35.6668 88.6577 35.5474C89.0419 35.4441 89.4328 35.3663 89.8277 35.3146C90.6311 35.2183 91.4206 35.0317 92.1808 34.7586V34.3319C92.2292 33.8423 92.0987 33.3517 91.8127 32.9482C91.6162 32.7586 91.381 32.6121 91.1227 32.5185C90.8643 32.4248 90.5887 32.3862 90.3141 32.4051C89.8197 32.3691 89.3289 32.5117 88.9337 32.806C88.577 33.2061 88.3484 33.701 88.2764 34.2284L86.9618 34.0086C87.0347 33.429 87.2271 32.8702 87.5271 32.3663C87.8127 31.9409 88.2197 31.608 88.6971 31.4094C89.2536 31.1581 89.8595 31.0301 90.4718 31.0344C91.0307 31.0156 91.5871 31.1171 92.1019 31.3319C92.4663 31.4865 92.7802 31.7371 93.009 32.056C93.2233 32.3894 93.3623 32.7643 93.4166 33.1551C93.4547 33.6501 93.4547 34.1472 93.4166 34.6422V36.7758C93.392 37.725 93.4227 38.6749 93.5086 39.6207C93.5593 40.0167 93.6655 40.404 93.8241 40.7715H92.5095C92.3707 40.3882 92.2866 39.9879 92.2597 39.5819V39.6336ZM92.1545 36.0517C91.4669 36.3487 90.7417 36.5532 89.9986 36.6594C89.6042 36.7087 89.2191 36.8132 88.8548 36.9698C88.633 37.0952 88.4509 37.2787 88.329 37.5C88.2049 37.7356 88.1417 37.9976 88.145 38.2629C88.1377 38.4574 88.1699 38.6514 88.2399 38.8335C88.3099 39.0156 88.4162 39.1821 88.5525 39.3232C88.7022 39.4735 88.883 39.5905 89.0825 39.6663C89.282 39.7421 89.4958 39.7751 89.7093 39.7629C90.1803 39.7606 90.6391 39.6161 91.024 39.3491C91.4231 39.0755 91.7262 38.687 91.8916 38.237C92.0626 37.7199 92.1383 37.1769 92.1151 36.6336V36.0517H92.1545ZM95.5068 40.8232V31.2931H96.69V32.6508C96.8877 32.17 97.2278 31.7587 97.6662 31.4705C98.1046 31.1822 98.621 31.0303 99.1483 31.0344C99.6058 31.0302 100.057 31.1368 100.463 31.3448C100.829 31.5282 101.135 31.8108 101.344 32.1594C101.55 32.5293 101.688 32.932 101.751 33.3491C101.817 33.8724 101.843 34.3996 101.83 34.9267V40.7715H100.515V35.0301C100.52 34.5542 100.458 34.0799 100.331 33.6207C100.241 33.3119 100.052 33.0399 99.7925 32.8448C99.5281 32.6473 99.2041 32.5426 98.8722 32.5474C98.5971 32.5481 98.3254 32.6075 98.0757 32.7213C97.8261 32.8351 97.6045 33.0008 97.4261 33.2069C96.9376 33.9403 96.7238 34.8181 96.8214 35.6896V40.862L95.5068 40.8232ZM108.89 37.3319L110.204 37.5517C110.12 38.4883 109.739 39.3751 109.113 40.0862C108.844 40.383 108.514 40.6197 108.144 40.7803C107.775 40.9409 107.374 41.0217 106.97 41.0172C106.469 41.0286 105.973 40.9162 105.528 40.6903C105.082 40.4644 104.701 40.1322 104.42 39.7241C103.7 38.6405 103.359 37.356 103.447 36.0646C103.431 35.1605 103.569 34.2602 103.855 33.4008C104.092 32.6993 104.553 32.0916 105.169 31.6681C105.689 31.2794 106.318 31.0581 106.97 31.0344C107.349 31.0228 107.725 31.0867 108.078 31.2222C108.43 31.3578 108.751 31.5623 109.021 31.8232C109.602 32.435 109.966 33.2152 110.06 34.0474L108.745 34.2931C108.68 33.7586 108.455 33.2549 108.101 32.8448C107.96 32.6919 107.787 32.5701 107.594 32.4877C107.402 32.4052 107.193 32.3638 106.983 32.3663C106.661 32.361 106.342 32.4379 106.059 32.5898C105.775 32.7416 105.537 32.9631 105.366 33.2327C104.88 34.0724 104.66 35.0362 104.735 36C104.679 36.9721 104.902 37.9402 105.38 38.7931C105.541 39.0594 105.77 39.2796 106.044 39.4317C106.319 39.5837 106.629 39.6622 106.944 39.6594C107.194 39.6671 107.442 39.6187 107.67 39.5179C107.897 39.417 108.099 39.2664 108.259 39.0775C108.656 38.5616 108.885 37.9395 108.916 37.2931L108.89 37.3319ZM116.593 37.7327L117.908 37.9525C117.761 38.809 117.347 39.5996 116.725 40.2155C116.43 40.4881 116.082 40.7005 115.703 40.8403C115.324 40.9801 114.921 41.0447 114.516 41.0301C114.005 41.0363 113.499 40.9222 113.042 40.6973C112.585 40.4723 112.189 40.1431 111.887 39.737C111.163 38.7016 110.803 37.462 110.862 36.2069C110.781 34.8905 111.136 33.5839 111.874 32.4827C112.171 32.0718 112.566 31.739 113.024 31.5135C113.483 31.2881 113.991 31.1768 114.503 31.1896C115.001 31.1838 115.493 31.2988 115.936 31.5243C116.378 31.7498 116.758 32.079 117.04 32.4827C117.759 33.5623 118.105 34.8411 118.026 36.1293C118.026 36.2327 118.026 36.375 118.026 36.556H112.216C112.199 37.4119 112.451 38.252 112.939 38.9612C113.118 39.2193 113.36 39.4299 113.642 39.5743C113.924 39.7186 114.238 39.7923 114.556 39.7888C115.009 39.7968 115.448 39.6297 115.778 39.3232C116.182 38.9045 116.464 38.3863 116.593 37.8232V37.7327ZM112.281 35.1465H116.606C116.601 34.5149 116.429 33.8956 116.107 33.3491C115.945 33.0675 115.71 32.8331 115.426 32.6696C115.142 32.5061 114.819 32.4193 114.49 32.4181C114.195 32.4155 113.903 32.4809 113.639 32.6089C113.374 32.7368 113.143 32.9239 112.965 33.1551C112.532 33.7329 112.293 34.429 112.281 35.1465Z" fill="white"/>
<path d="M55.582 27.6982H52.5715V40.875H55.582V27.6982Z" fill="white"/>
<path fill-rule="evenodd" clip-rule="evenodd" d="M52.9132 26.4825C52.9921 26.3661 53.3339 26.2109 53.0578 25.9911C50.7967 23.5213 54.6748 23.1592 54.1358 21.3359C55.6739 23.0816 56.5547 23.9221 54.7274 26.0558C54.7274 26.2497 54.9114 26.3402 55.0166 26.4825H52.9132ZM53.4917 25.9265C53.9518 23.6765 55.1612 24.6333 54.3987 22.2928C53.61 24.1808 52.1902 24.0773 53.4917 25.9265Z" fill="white"/>
<path d="M0 -8.72724e-05H15.7754C18.3602 -0.106482 20.938 0.334499 23.3344 1.29302C25.2432 2.16952 26.8976 3.5034 28.1459 5.17233C29.4209 6.87658 30.3453 8.80929 30.8672 10.862C31.4452 13.1325 31.7323 15.4653 31.7217 17.8059C31.829 20.8292 31.3837 23.8469 30.4071 26.7154C29.6491 28.7165 28.4557 30.5304 26.9102 32.0301C25.5992 33.3613 23.9732 34.3521 22.1776 34.9137C20.1157 35.5195 17.9795 35.8457 15.828 35.8835H0V-8.72724e-05ZM10.6352 8.10767V27.6982H13.2645C14.8892 27.8056 16.5174 27.5446 18.0234 26.9353C19.0564 26.3167 19.841 25.3668 20.2451 24.2456C20.8831 22.2308 21.1502 20.1201 21.0339 18.0128C21.0339 14.2111 20.4423 11.6249 19.246 10.2542C18.0497 8.88353 16.0646 8.14646 13.3039 8.14646L10.6352 8.10767Z" fill="white"/>
</svg>
