<svg width="117" height="48" viewBox="0 0 117 48" fill="none" xmlns="http://www.w3.org/2000/svg">
<path d="M27.6511 12.6475H27.6614L27.6718 12.647C30.1586 12.5437 32.6387 12.971 34.9447 13.8997C36.7252 14.728 38.2751 15.9743 39.4607 17.5304C40.6918 19.2006 41.5792 21.0949 42.0725 23.1052L42.0733 23.1083C42.636 25.3387 42.9154 27.6301 42.9051 29.9292L42.9051 29.939L42.9054 29.9488C43.0083 32.9138 42.5767 35.8732 41.6311 38.6876C40.9023 40.6121 39.7611 42.357 38.2861 43.8014L38.286 43.8014L38.2796 43.8079C37.0228 45.0845 35.4598 46.0239 33.7368 46.5379L33.7366 46.538C31.7425 47.1337 29.6759 47.4573 27.5938 47.5H12.4622V12.6475H27.6511ZM22.5634 19.77L22.0561 19.7626V20.2699V39.8517V40.3517H22.5561H25.1457C26.8264 40.4613 28.5102 40.1876 30.0683 39.5515L30.1045 39.5367L30.1379 39.5165C31.2598 38.8386 32.1129 37.797 32.5523 36.5666L32.5554 36.558L32.5582 36.5493C33.2125 34.4819 33.4896 32.3151 33.3763 30.151C33.375 26.3603 32.7904 23.6138 31.485 22.0799C30.1697 20.5345 28.0338 19.818 25.2188 19.8087L22.5634 19.77Z" fill="#1EAC57" stroke="#1EAC57"/>
<path fill-rule="evenodd" clip-rule="evenodd" d="M50.9889 15.1481V12.432H56.2011V17.9806C55.4243 18.6668 54.5452 19.2296 53.595 19.649C52.7272 19.9625 51.8078 20.1116 50.8846 20.0888C49.7829 20.1331 48.692 19.859 47.7442 19.2998C46.8857 18.7209 46.2263 17.8949 45.8548 16.9329C45.3917 15.791 45.1657 14.5681 45.1902 13.3373C45.1568 12.0619 45.406 10.7948 45.9199 9.62534C46.3598 8.62378 47.1079 7.78617 48.057 7.23258C48.9748 6.76816 49.9989 6.54971 51.0279 6.59882C51.9397 6.5528 52.8516 6.68462 53.7123 6.98684C54.3106 7.24886 54.8246 7.66953 55.1978 8.20262C55.607 8.8376 55.89 9.54442 56.0317 10.285L52.8131 10.9963C52.7117 10.5533 52.4696 10.1543 52.1225 9.85815C51.777 9.58092 51.3415 9.43835 50.8976 9.4572C50.5531 9.44883 50.2121 9.52753 49.9067 9.6859C49.6013 9.84428 49.3414 10.0771 49.1515 10.3626C48.6489 11.2519 48.4222 12.2688 48.5 13.2856C48.4141 14.3319 48.6408 15.38 49.1515 16.2992C49.3573 16.5943 49.6347 16.8332 49.9581 16.9937C50.2815 17.1543 50.6405 17.2312 51.0019 17.2175C51.3671 17.2194 51.7295 17.1536 52.0704 17.0235C52.4812 16.8433 52.8703 16.6177 53.2301 16.3509V15.1481H50.9889Z" fill="white"/>
<path fill-rule="evenodd" clip-rule="evenodd" d="M63.329 16.8295L64.6321 17.0493C64.5171 17.9378 64.12 18.7668 63.4984 19.4162C63.2005 19.688 62.8514 19.8987 62.4713 20.0363C62.0912 20.1739 61.6874 20.2357 61.2832 20.2181C60.7638 20.2336 60.2484 20.1241 59.7809 19.8988C59.3135 19.6736 58.9079 19.3394 58.5989 18.9247C57.877 17.868 57.5287 16.6034 57.6085 15.3291C57.521 13.9959 57.8832 12.6717 58.638 11.5654C58.9316 11.1536 59.3231 10.8201 59.7777 10.5945C60.2323 10.3688 60.736 10.2581 61.2441 10.272C61.7398 10.2664 62.2294 10.3813 62.6701 10.6067C63.1107 10.8322 63.4891 11.1613 63.772 11.5654C64.49 12.6433 64.8374 13.9228 64.7624 15.2127C64.7624 15.3162 64.7624 15.4585 64.7624 15.6396H58.9507C58.9406 16.4947 59.1904 17.3331 59.6674 18.0452C59.8498 18.3021 60.0919 18.5114 60.3732 18.6555C60.6545 18.7996 60.9666 18.8742 61.2832 18.873C61.5161 18.8776 61.7476 18.8365 61.9645 18.7522C62.1814 18.6678 62.3794 18.5419 62.5472 18.3815C62.9416 17.942 63.2114 17.4064 63.329 16.8295ZM59.0289 14.2427H63.342C63.3366 13.611 63.166 12.9915 62.8469 12.4449C62.6909 12.1774 62.4706 11.9523 62.2058 11.7897C61.941 11.6271 61.6398 11.5319 61.329 11.5127C61.0182 11.4935 60.7075 11.5509 60.4244 11.6797C60.1413 11.8084 59.8947 12.0047 59.7065 12.2509C59.2652 12.8223 59.0269 13.5227 59.0289 14.2427ZM66.3521 19.9207V10.4402H67.5249V11.7335C67.6779 11.3973 67.8984 11.0955 68.1728 10.8466C68.4472 10.5977 68.7699 10.4069 69.1211 10.2859C69.4723 10.1648 69.8446 10.1161 70.2154 10.1426C70.5862 10.1692 70.9476 10.2704 71.2777 10.4402C71.6411 10.6236 71.944 10.9063 72.1507 11.255C72.3592 11.6242 72.5004 12.027 72.5677 12.4449C72.6194 12.9649 72.6411 13.4874 72.6329 14.0099V19.8689H71.3298V14.2427C71.352 13.747 71.3037 13.2506 71.1865 12.7682C71.0916 12.4585 70.8999 12.1867 70.6392 11.9922C70.3789 11.778 70.0522 11.6593 69.714 11.6559C69.4391 11.6548 69.1672 11.7133 68.9174 11.8272C68.6676 11.9411 68.4458 12.1078 68.2676 12.3156C67.7778 13.047 67.5611 13.9255 67.6552 14.7989V19.9724L66.3521 19.9207ZM79.9431 16.8295L81.2461 17.0493C81.1365 17.9394 80.7387 18.77 80.1125 19.4162C79.8169 19.6876 79.4702 19.8981 79.0922 20.0358C78.7142 20.1734 78.3125 20.2354 77.9103 20.2181C77.3889 20.2346 76.8712 20.1256 76.4015 19.9004C75.9318 19.6752 75.524 19.3404 75.213 18.9247C74.5009 17.8509 74.1707 16.5717 74.2747 15.2903C74.195 13.9737 74.547 12.6669 75.2781 11.5654C75.5717 11.1536 75.9632 10.8201 76.4178 10.5945C76.8725 10.3688 77.3761 10.2581 77.8842 10.272C78.38 10.2664 78.8696 10.3813 79.3102 10.6067C79.7509 10.8322 80.1292 11.1613 80.4122 11.5654C81.1353 12.6409 81.4832 13.9222 81.4025 15.2127C81.4025 15.3162 81.4025 15.4585 81.4025 15.6396H75.5778C75.5649 16.497 75.8198 17.3374 76.3075 18.0452C76.4891 18.3028 76.7311 18.5128 77.0125 18.657C77.294 18.8012 77.6066 18.8753 77.9233 18.873C78.3768 18.8803 78.8157 18.7135 79.1482 18.4074C79.5565 17.9655 79.8319 17.4188 79.9431 16.8295ZM75.643 14.2427H79.9561C79.9498 13.6308 79.7885 13.0304 79.487 12.4966C79.3231 12.2148 79.0877 11.9806 78.8042 11.8172C78.5207 11.6538 78.199 11.567 77.8712 11.5654C77.5769 11.5629 77.2861 11.6282 77.0216 11.7561C76.757 11.884 76.526 12.0711 76.3466 12.3026C75.9116 12.8594 75.6653 13.5385 75.643 14.2427ZM82.9532 19.9207V10.4402H84.1259V11.9017C84.321 11.4231 84.6038 10.9846 84.9599 10.6083C85.194 10.4033 85.4946 10.2885 85.8069 10.285C86.2848 10.3189 86.7403 10.4997 87.1099 10.8023L86.6408 12.2897C86.3656 12.0858 86.0329 11.9727 85.6896 11.9664C85.4022 11.9656 85.1261 12.0771 84.9208 12.2768C84.6735 12.5162 84.5015 12.8217 84.4256 13.1563C84.2799 13.7751 84.2099 14.4091 84.2171 15.0446V20.0241L82.9532 19.9207ZM92.9998 18.7307C92.6029 19.1733 92.1255 19.5375 91.5925 19.8042C91.1387 20.0106 90.6452 20.1166 90.1461 20.1147C89.7866 20.1485 89.424 20.1035 89.0839 19.9829C88.7439 19.8622 88.4348 19.6687 88.1784 19.4162C87.706 18.8763 87.4589 18.1778 87.4878 17.4632C87.4795 17.0185 87.5684 16.5772 87.7484 16.1698C87.9011 15.8129 88.1327 15.4947 88.426 15.2386C88.7076 15.0053 89.03 14.8256 89.3773 14.7083C89.7626 14.6053 90.1544 14.5276 90.55 14.4755C91.3506 14.3789 92.1374 14.1923 92.8955 13.9194V13.4925C92.9366 13.0056 92.8027 12.5199 92.5177 12.1216C92.3204 11.9315 92.085 11.7849 91.8268 11.6913C91.5686 11.5977 91.2933 11.5592 91.0191 11.5783C90.5245 11.5366 90.0319 11.6796 89.6379 11.9793C89.2781 12.3755 89.0505 12.8724 88.9863 13.402L87.6833 13.1821C87.7632 12.6005 87.9628 12.0414 88.2697 11.5395C88.5508 11.1092 88.9545 10.7716 89.4294 10.5695C89.9941 10.3344 90.6023 10.2198 91.2146 10.2332C91.7727 10.2158 92.3281 10.3172 92.8434 10.5307C93.2045 10.6853 93.5188 10.9304 93.7556 11.2421C93.9658 11.5813 94.1033 11.96 94.1595 12.3544C94.1971 12.8451 94.1971 13.338 94.1595 13.8288V15.9758C94.1352 16.9253 94.1656 17.8753 94.2507 18.8213C94.3026 19.2171 94.4078 19.6043 94.5635 19.9724H93.2604C93.118 19.5898 93.0303 19.1892 92.9998 18.7825V18.7307ZM92.8955 15.1481C92.2093 15.4448 91.4862 15.6493 90.7455 15.756C90.3501 15.8037 89.9638 15.9082 89.5988 16.0664C89.3767 16.1889 89.1955 16.3732 89.0776 16.5967C88.9546 16.8323 88.8919 17.0944 88.8951 17.3598C88.8879 17.5543 88.9199 17.7484 88.9893 17.9305C89.0586 18.1126 89.164 18.2792 89.2991 18.4203C89.4506 18.5693 89.6325 18.6844 89.8325 18.758C90.0325 18.8316 90.246 18.862 90.4588 18.8471C90.9415 18.8585 91.4156 18.7183 91.8133 18.4466C92.2111 18.1749 92.5123 17.7855 92.674 17.3339C92.8435 16.8167 92.9185 16.2735 92.8955 15.7301V15.1481ZM96.2183 19.9207V6.8187H97.5214V19.9724L96.2183 19.9207Z" fill="white"/>
<path fill-rule="evenodd" clip-rule="evenodd" d="M57.5952 40.8476V31.3154H58.768V32.6734C58.9664 32.1863 59.3095 31.7706 59.7518 31.4818C60.1941 31.193 60.7145 31.0447 61.2438 31.0567C61.6969 31.0556 62.1437 31.162 62.5469 31.3671C62.9067 31.5507 63.2054 31.8337 63.4069 32.182C63.6153 32.5512 63.7565 32.954 63.8239 33.3719C63.8648 33.9141 63.8735 34.4583 63.8499 35.0015V40.8476H62.5469V35.0533C62.5559 34.5778 62.4989 34.1035 62.3775 33.6435C62.2921 33.3326 62.104 33.0593 61.8432 32.8675C61.5852 32.6718 61.2688 32.5671 60.9441 32.57C60.6709 32.5681 60.4007 32.6263 60.1529 32.7403C59.9051 32.8544 59.6858 33.0215 59.5107 33.2296C59.0209 33.9611 58.8043 34.8396 58.8983 35.7129V40.8864L57.5952 40.8476ZM65.3224 38.0022L66.6255 37.7435C66.6571 38.2869 66.8677 38.805 67.2249 39.218C67.4105 39.3917 67.6299 39.5261 67.8696 39.6128C68.1094 39.6995 68.3644 39.7368 68.6191 39.7224C68.8561 39.7404 69.0942 39.7094 69.3184 39.6315C69.5427 39.5536 69.7483 39.4304 69.9222 39.2697C70.0656 39.1327 70.179 38.9678 70.2552 38.7853C70.3314 38.6028 70.3689 38.4066 70.3652 38.2091C70.3724 38.0463 70.3407 37.8842 70.2728 37.7358C70.2049 37.5875 70.1026 37.4572 69.9743 37.3555C69.5665 37.114 69.1284 36.927 68.6713 36.7993C67.9873 36.6104 67.3239 36.3548 66.6906 36.0362C66.3303 35.8208 66.0406 35.5063 65.8566 35.1309C65.659 34.7284 65.5607 34.2851 65.57 33.8375C65.5657 33.4333 65.6455 33.0326 65.8045 32.6605C65.9446 32.3178 66.1632 32.0123 66.443 31.7681C66.686 31.5548 66.9695 31.3921 67.277 31.2895C67.6357 31.1582 68.0153 31.0925 68.3976 31.0955C68.9464 31.0862 69.4901 31.2012 69.9874 31.4318C70.4033 31.6118 70.7536 31.9143 70.9907 32.2984C71.2377 32.7595 71.3884 33.2654 71.4338 33.7858L70.1307 34.0056C70.0975 33.5721 69.9185 33.1621 69.6225 32.8416C69.4669 32.6953 69.2822 32.5829 69.0802 32.5116C68.8782 32.4403 68.6635 32.4117 68.4497 32.4277C67.9844 32.3754 67.517 32.5053 67.1467 32.7899C67.0274 32.9011 66.9324 33.0353 66.8674 33.1843C66.8024 33.3334 66.7689 33.494 66.7688 33.6564C66.7667 33.8528 66.8209 34.0457 66.9252 34.2126C67.0417 34.4023 67.2147 34.5514 67.4203 34.6394C67.7948 34.7975 68.1776 34.9357 68.567 35.0533C69.2272 35.2571 69.8717 35.5078 70.4956 35.8034C70.8572 35.9964 71.1557 36.2881 71.3556 36.6441C71.578 37.0757 71.6856 37.5565 71.6683 38.041C71.6702 38.5686 71.5404 39.0885 71.2904 39.5542C71.0418 40.0191 70.6612 40.4013 70.1958 40.6536C69.6977 40.9267 69.136 41.065 68.567 41.0546C68.154 41.0828 67.7394 41.0287 67.3478 40.8955C66.9561 40.7622 66.5953 40.5524 66.2867 40.2785C65.7099 39.6494 65.3573 38.8496 65.2833 38.0022H65.3224ZM78.2749 40.8476V39.4249C78.0695 39.9003 77.7304 40.3069 77.2983 40.5959C76.8661 40.8849 76.3591 41.0442 75.8381 41.0546C75.3832 41.0581 74.9348 40.9469 74.5351 40.7312C74.1745 40.5438 73.8726 40.262 73.662 39.9164C73.452 39.5444 73.315 39.1362 73.2581 38.7135C73.195 38.216 73.1689 37.7146 73.1799 37.2132V31.3154H74.4829V36.5924C74.4677 37.1583 74.4938 37.7246 74.5611 38.2867C74.6178 38.6672 74.8013 39.0178 75.0823 39.2826C75.3473 39.5279 75.6974 39.6622 76.0596 39.6577C76.4595 39.6522 76.8473 39.5209 77.1672 39.2826C77.5084 39.0308 77.7595 38.6773 77.8839 38.2738C78.0792 37.6718 78.1803 37.0437 78.1836 36.4113V31.3154H79.4867V40.8476H78.2749ZM81.4804 40.8476V31.3154H82.6531V32.7769C82.8395 32.2969 83.1184 31.8576 83.4741 31.4835C83.7064 31.2738 84.0071 31.1544 84.3211 31.1473C84.8002 31.1759 85.2573 31.3573 85.6241 31.6646L85.1681 33.152C84.8929 32.9481 84.5602 32.835 84.2168 32.8287C83.93 32.8306 83.6548 32.9417 83.448 33.1391C83.2115 33.3846 83.0451 33.6881 82.9659 34.0186C82.8201 34.6374 82.7501 35.2714 82.7574 35.9069V40.8864L81.4804 40.8476ZM91.4488 39.6577C91.0538 40.0968 90.5813 40.4606 90.0546 40.7312C89.6027 40.9445 89.1085 41.055 88.6082 41.0546C88.2467 41.0774 87.8846 41.0196 87.5486 40.8853C87.2126 40.751 86.9112 40.5437 86.6666 40.2785C86.2035 39.7348 85.9659 39.0366 86.002 38.3255C85.9953 37.8809 86.0842 37.44 86.2626 37.0321C86.4153 36.6753 86.6469 36.357 86.9402 36.1009C87.2184 35.8697 87.5362 35.6901 87.8784 35.5706C88.2593 35.4673 88.6468 35.3895 89.0382 35.3378C89.8345 35.2415 90.6171 35.0549 91.3707 34.7817V34.3548C91.4186 33.8652 91.2893 33.3745 91.0058 32.9709C90.811 32.7812 90.5779 32.6347 90.3218 32.541C90.0657 32.4474 89.7925 32.4088 89.5203 32.4277C89.0303 32.3917 88.5438 32.5343 88.1521 32.8287C87.7985 33.2289 87.5719 33.7238 87.5006 34.2514L86.1975 34.0315C86.2698 33.4518 86.4604 32.8929 86.7578 32.3889C87.0409 31.9634 87.4444 31.6304 87.9175 31.4318C88.4692 31.1804 89.0697 31.0524 89.6767 31.0567C90.2307 31.0379 90.7821 31.1394 91.2925 31.3542C91.6536 31.5089 91.9647 31.7595 92.1916 32.0785C92.404 32.412 92.5418 32.7869 92.5955 33.1779C92.6333 33.673 92.6333 34.1702 92.5955 34.6653V36.7993C92.5712 37.7488 92.6017 38.6988 92.6867 39.6448C92.737 40.0409 92.8423 40.4283 92.9995 40.7959H91.6964C91.5588 40.4125 91.4755 40.0121 91.4488 39.606V39.6577ZM91.3446 36.075C90.663 36.3722 89.9442 36.5766 89.2076 36.6829C88.8167 36.7322 88.4349 36.8367 88.0739 36.9933C87.854 37.1187 87.6735 37.3023 87.5527 37.5236C87.4297 37.7593 87.367 38.0214 87.3702 38.2867C87.363 38.4813 87.395 38.6753 87.4644 38.8575C87.5337 39.0396 87.6391 39.2061 87.7742 39.3473C87.9226 39.4976 88.1018 39.6146 88.2996 39.6904C88.4973 39.7663 88.7092 39.7992 88.9209 39.787C89.3877 39.7847 89.8425 39.6403 90.2239 39.3732C90.6196 39.0995 90.92 38.7109 91.084 38.2609C91.2535 37.7436 91.3285 37.2005 91.3055 36.6571V36.075H91.3446ZM94.6674 40.8476V31.3154H95.8402V32.6734C96.0362 32.1925 96.3733 31.7812 96.8079 31.4929C97.2424 31.2045 97.7542 31.0526 98.2769 31.0567C98.7303 31.0525 99.1779 31.1591 99.58 31.3671C99.9433 31.5505 100.246 31.8333 100.453 32.182C100.657 32.5519 100.794 32.9547 100.857 33.3719C100.922 33.8952 100.948 34.4226 100.935 34.9498V40.7959H99.6321V35.0533C99.6369 34.5772 99.5755 34.1028 99.4497 33.6435C99.3599 33.3347 99.1726 33.0627 98.9154 32.8675C98.6534 32.6699 98.3322 32.5652 98.0033 32.57C97.7305 32.5707 97.4612 32.6301 97.2138 32.7439C96.9663 32.8578 96.7467 33.0235 96.5699 33.2296C96.0856 33.9632 95.8737 34.8412 95.9705 35.7129V40.8864L94.6674 40.8476ZM107.933 37.3555L109.236 37.5754C109.152 38.5122 108.774 39.3992 108.154 40.1104C107.888 40.4073 107.56 40.6441 107.194 40.8047C106.828 40.9653 106.431 41.0461 106.03 41.0416C105.533 41.053 105.042 40.9406 104.6 40.7147C104.158 40.4887 103.781 40.1564 103.502 39.7482C102.789 38.6644 102.45 37.3796 102.538 36.088C102.522 35.1837 102.658 34.2832 102.942 33.4236C103.177 32.7219 103.634 32.1142 104.245 31.6905C104.76 31.3017 105.383 31.0804 106.03 31.0567C106.405 31.045 106.779 31.1089 107.128 31.2445C107.477 31.3801 107.795 31.5846 108.063 31.8457C108.639 32.4575 109 33.2379 109.092 34.0703L107.789 34.316C107.724 33.7814 107.502 33.2776 107.151 32.8675C107.011 32.7145 106.84 32.5927 106.649 32.5103C106.458 32.4278 106.251 32.3864 106.043 32.3889C105.723 32.3835 105.408 32.4605 105.127 32.6124C104.846 32.7643 104.609 32.9858 104.44 33.2555C103.958 34.0953 103.74 35.0594 103.815 36.0233C103.759 36.9956 103.98 37.964 104.453 38.817C104.613 39.0834 104.84 39.3037 105.112 39.4557C105.384 39.6078 105.692 39.6864 106.004 39.6836C106.252 39.6912 106.498 39.6428 106.723 39.542C106.949 39.4411 107.149 39.2905 107.307 39.1016C107.701 38.5855 107.928 37.9633 107.959 37.3167L107.933 37.3555ZM115.569 37.7564L116.872 37.9763C116.726 38.833 116.316 39.6237 115.699 40.2397C115.406 40.5124 115.062 40.7248 114.686 40.8647C114.311 41.0045 113.911 41.0691 113.51 41.0546C113.003 41.0608 112.502 40.9466 112.049 40.7216C111.595 40.4966 111.203 40.1673 110.904 39.7612C110.186 38.7255 109.829 37.4857 109.887 36.2302C109.807 34.9136 110.159 33.6068 110.891 32.5053C111.185 32.0943 111.577 31.7614 112.031 31.5359C112.485 31.3104 112.989 31.1991 113.497 31.2119C113.991 31.2061 114.478 31.3211 114.917 31.5467C115.356 31.7722 115.732 32.1015 116.012 32.5053C116.724 33.5851 117.067 34.8642 116.989 36.1526C116.989 36.2561 116.989 36.3984 116.989 36.5795H111.229C111.213 37.4355 111.463 38.2758 111.946 38.9851C112.124 39.2434 112.363 39.454 112.643 39.5984C112.923 39.7428 113.234 39.8165 113.549 39.8129C113.999 39.821 114.434 39.6538 114.761 39.3473C115.161 38.9285 115.44 38.4101 115.569 37.847V37.7564ZM111.295 35.1697H115.582C115.576 34.538 115.406 33.9185 115.086 33.3719C114.926 33.0902 114.693 32.8557 114.411 32.6922C114.13 32.5287 113.81 32.4419 113.484 32.4406C113.191 32.4381 112.902 32.5035 112.64 32.6315C112.377 32.7595 112.149 32.9466 111.972 33.1779C111.543 33.7558 111.306 34.452 111.295 35.1697Z" fill="white"/>
<path d="M55.0936 27.7198H52.1096V40.8993H55.0936V27.7198Z" fill="white"/>
<path fill-rule="evenodd" clip-rule="evenodd" d="M52.4483 26.504C52.5264 26.3876 52.8652 26.2324 52.5916 26.0125C50.3503 23.5421 54.1944 23.18 53.6601 21.3563C55.1847 23.1024 56.0578 23.9431 54.2465 26.0772C54.2465 26.2712 54.4289 26.3617 54.5332 26.504H52.4483ZM53.0216 25.9478C53.4777 23.6973 54.6765 24.6544 53.9207 22.3134C53.1389 24.2018 51.7316 24.0983 53.0216 25.9478Z" fill="white"/>
<path d="M15.6845 35.4069H0.5V0.515541H15.6368H15.6472L15.6575 0.51511C18.1444 0.411815 20.6245 0.83906 22.9306 1.76787C24.7421 2.60961 26.312 3.88829 27.4969 5.48682L27.497 5.48684C28.7218 7.13905 29.6098 9.01253 30.1111 11.0021L30.1111 11.0023C30.6738 13.2326 30.9533 15.524 30.943 17.8232L30.9429 17.8331L30.9433 17.843C31.0474 20.8038 30.6157 23.7592 29.6688 26.5689C28.9432 28.4987 27.8017 30.2483 26.3239 31.6954L26.3238 31.6953L26.3159 31.7034C25.0752 32.9747 23.5362 33.9215 21.8363 34.4587C19.8386 35.0505 17.769 35.3695 15.6845 35.4069ZM10.5491 7.6251L10.0418 7.61766V8.12504V27.7198V28.2198H10.5418H13.1314C14.8121 28.3293 16.496 28.0557 18.054 27.4196L18.0902 27.4048L18.1236 27.3846C19.2456 26.7066 20.0986 25.665 20.5381 24.4346L20.5413 24.4254L20.5443 24.4161C21.1932 22.3481 21.4657 20.1817 21.349 18.0187C21.3483 16.1008 21.2003 14.468 20.8951 13.1292C20.59 11.7907 20.1207 10.7146 19.455 9.94497C18.1393 8.42377 16.0056 7.66451 13.1907 7.66385L10.5491 7.6251Z" fill="#1E4CA5" stroke="#1E4CA5"/>
</svg>
