<svg width="20" height="18" viewBox="0 0 20 18" fill="none" xmlns="http://www.w3.org/2000/svg">
<path d="M9.02646 13.5617C9.02646 12.5133 8.75383 11.6067 8.19493 10.87C7.34976 9.765 5.70032 9.62333 4.7461 9.85C4.35078 7.5125 6.25923 4.5375 8.72657 3.2625L6.83176 0.5C3.1103 2.34167 -0.556635 6.56333 0.0704245 11.9042C0.465744 15.2758 2.34692 17.5 5.00511 17.5C6.1638 17.5 7.13165 17.1458 7.89503 16.4375C8.65841 15.7292 9.02646 14.7658 9.02646 13.5617ZM20 13.5617C20 12.5133 19.7274 11.6067 19.1685 10.87C18.3097 9.765 16.6739 9.62333 15.7196 9.85C15.3243 7.5125 17.2328 4.5375 19.7001 3.2625L17.8053 0.5C14.0838 2.34167 10.4305 6.56333 11.0576 11.9042C11.4529 15.2758 13.3205 17.5 15.9786 17.5C17.1373 17.5 18.1052 17.1458 18.8686 16.4375C19.6319 15.7292 20 14.7658 20 13.5617Z" fill="white"/>
</svg>
