<svg width="16" height="15" viewBox="0 0 16 15" fill="none" xmlns="http://www.w3.org/2000/svg">
<path fill-rule="evenodd" clip-rule="evenodd" d="M7.60287 1.25741C7.37541 1.64071 7.12985 2.22962 6.77965 3.07345L6.73906 3.17124C6.5515 3.62321 6.39839 3.99215 6.24086 4.28181C6.07627 4.58445 5.89069 4.83243 5.62099 5.02624C5.35128 5.22005 5.05214 5.32039 4.70487 5.38556C4.3725 5.44794 3.96285 5.48339 3.46102 5.52682L3.24994 5.54509C2.38236 5.62019 1.78103 5.67332 1.36983 5.76711C0.946656 5.86363 0.898691 5.96559 0.885295 6.00409C0.871899 6.04259 0.846366 6.15184 1.12319 6.47591C1.39218 6.7908 1.83808 7.18434 2.48238 7.7509L2.91916 8.13497C3.22787 8.40643 3.48016 8.62826 3.67209 8.82895C3.87239 9.03838 4.02801 9.24566 4.12967 9.49703C4.16451 9.58319 4.19348 9.67146 4.21638 9.76128C4.28321 10.0233 4.27964 10.2794 4.24084 10.5621C4.20367 10.8331 4.12979 11.1549 4.03938 11.5487L3.97683 11.8212C3.80194 12.583 3.67927 13.1202 3.63391 13.5086C3.5852 13.9258 3.64948 14.0156 3.65866 14.0255C3.71495 14.0861 3.78811 14.1297 3.86937 14.1511C3.88263 14.1546 3.99453 14.1698 4.35836 13.9405C4.69719 13.727 5.13875 13.38 5.76468 12.887L5.78124 12.874C6.17267 12.5657 6.49022 12.3156 6.76846 12.1358C7.05712 11.9492 7.33528 11.8165 7.65447 11.7672C7.88337 11.7319 8.11663 11.7319 8.34553 11.7672C8.66472 11.8165 8.94288 11.9492 9.23154 12.1358C9.50978 12.3156 9.82733 12.5657 10.2188 12.874L10.2353 12.887C10.8613 13.38 11.3028 13.727 11.6416 13.9405C12.0055 14.1698 12.1174 14.1546 12.1306 14.1511C12.2119 14.1297 12.285 14.0861 12.3413 14.0255C12.3505 14.0156 12.4148 13.9258 12.3661 13.5086C12.3207 13.1202 12.1981 12.583 12.0232 11.8212L11.9606 11.5487C11.8702 11.1549 11.7963 10.8331 11.7592 10.5621C11.7204 10.2794 11.7168 10.0233 11.7836 9.76128C11.8065 9.67146 11.8355 9.58319 11.8703 9.49703C11.972 9.24566 12.1276 9.03838 12.3279 8.82895C12.5198 8.62826 12.7721 8.40643 13.0808 8.13497L13.5176 7.7509C14.1619 7.18434 14.6078 6.7908 14.8768 6.47591C15.1536 6.15184 15.1281 6.04259 15.1147 6.00409C15.1013 5.96559 15.0533 5.86363 14.6302 5.76711C14.219 5.67332 13.6176 5.62019 12.7501 5.54509L12.539 5.52682C12.0371 5.48339 11.6275 5.44794 11.2951 5.38556C10.9479 5.32039 10.6487 5.22005 10.379 5.02624C10.1093 4.83243 9.92373 4.58445 9.75914 4.28181C9.60161 3.99215 9.4485 3.6232 9.26093 3.17122L9.22035 3.07345C8.87015 2.22962 8.62459 1.64071 8.39713 1.25741C8.15959 0.857135 8.03769 0.847231 8 0.847231C7.96231 0.847231 7.84041 0.857135 7.60287 1.25741ZM6.84249 0.835882C7.09793 0.40545 7.44484 0 8 0C8.55516 0 8.90207 0.40545 9.15751 0.835883C9.4193 1.27703 9.687 1.92209 10.0197 2.7238L10.066 2.8354C10.2641 3.31273 10.4009 3.641 10.5351 3.88762C10.6645 4.12559 10.7748 4.2549 10.902 4.34634C11.0293 4.43778 11.1892 4.50262 11.4622 4.55387C11.7452 4.60697 12.1098 4.63906 12.6398 4.68493L12.8662 4.70453C13.6868 4.77554 14.3516 4.83308 14.8315 4.94253C15.3068 5.05093 15.7765 5.24809 15.9456 5.73401C16.1146 6.21994 15.8637 6.65135 15.5528 7.01531C15.2389 7.38278 14.7452 7.8169 14.1358 8.35274L13.6848 8.74932C13.3586 9.03609 13.1347 9.23347 12.9716 9.40404C12.8139 9.56891 12.7345 9.68735 12.6868 9.80547C12.6659 9.85717 12.6485 9.91013 12.6347 9.96402C12.6033 10.0872 12.5976 10.2282 12.6281 10.4508C12.6597 10.681 12.725 10.967 12.8205 11.3831L12.8851 11.6647C13.0524 12.3934 13.1859 12.9748 13.2371 13.4136C13.2857 13.8292 13.2856 14.2773 12.9935 14.5916C12.8246 14.7733 12.6052 14.9042 12.3614 14.9684C11.9397 15.0797 11.5253 14.8786 11.1629 14.6502C10.7802 14.4091 10.3025 14.0328 9.70377 13.5613L9.68159 13.5438C9.26966 13.2194 8.984 12.995 8.74426 12.84C8.51104 12.6893 8.35368 12.6264 8.20732 12.6038C8.06998 12.5826 7.93002 12.5826 7.79268 12.6038C7.64632 12.6264 7.48896 12.6893 7.25574 12.84C7.016 12.995 6.73034 13.2194 6.31841 13.5438L6.29622 13.5613C5.69749 14.0329 5.21983 14.4091 4.83711 14.6502C4.47467 14.8786 4.06033 15.0797 3.63862 14.9684C3.39482 14.9042 3.17536 14.7733 3.0065 14.5916C2.71442 14.2773 2.71434 13.8292 2.76286 13.4136C2.81409 12.9748 2.94756 12.3935 3.11485 11.6647L3.17951 11.3831C3.27501 10.967 3.34028 10.681 3.37187 10.4508C3.40241 10.2282 3.39667 10.0872 3.36527 9.96402C3.35153 9.91013 3.33415 9.85717 3.31324 9.80547C3.26547 9.68735 3.18606 9.56891 3.02839 9.40404C2.86526 9.23347 2.64136 9.03609 2.31524 8.74932L1.86424 8.35275C1.25484 7.8169 0.761129 7.38279 0.447226 7.01531C0.136324 6.65135 -0.114641 6.21994 0.0544478 5.73401C0.223537 5.24809 0.693229 5.05093 1.1685 4.94253C1.64837 4.83307 2.31316 4.77554 3.13375 4.70453L3.36016 4.68493C3.89015 4.63906 4.25481 4.60697 4.53778 4.55387C4.81084 4.50262 4.97072 4.43778 5.09798 4.34634C5.22523 4.2549 5.33552 4.12559 5.46494 3.88761C5.59906 3.641 5.73587 3.31273 5.93397 2.8354L5.98029 2.7238C6.313 1.92209 6.5807 1.27703 6.84249 0.835882Z" fill="#B4B7C9"/>
</svg>
