<svg width="16" height="15" viewBox="0 0 16 15" fill="none" xmlns="http://www.w3.org/2000/svg">
<path d="M6.22704 2.58206C6.89956 0.950904 7.23581 0.135327 7.78212 0.0222913C7.92577 -0.00743043 8.07423 -0.00743043 8.21788 0.0222913C8.76418 0.135327 9.10044 0.950904 9.77296 2.58206C10.1554 3.50967 10.3466 3.97347 10.7044 4.28893C10.8048 4.37741 10.9137 4.45622 11.0297 4.52424C11.4433 4.76674 11.9596 4.81172 12.9921 4.90169C14.74 5.05399 15.6139 5.13013 15.8808 5.61493C15.936 5.71534 15.9736 5.82405 15.9919 5.93654C16.0804 6.47972 15.438 7.0484 14.153 8.18577L13.7962 8.50161C13.1954 9.03335 12.8951 9.29921 12.7213 9.63102C12.6171 9.83005 12.5472 10.0444 12.5145 10.2655C12.4599 10.6341 12.5479 11.0198 12.7238 11.7912L12.7866 12.0668C13.1021 13.4501 13.2599 14.1418 13.0629 14.4818C12.8861 14.7872 12.5603 14.9827 12.2004 14.9994C11.7997 15.0181 11.2352 14.5705 10.1061 13.6754C9.36224 13.0857 8.99029 12.7908 8.5774 12.6756C8.20007 12.5703 7.79993 12.5703 7.4226 12.6756C7.00971 12.7908 6.63777 13.0857 5.89389 13.6754C4.7648 14.5705 4.20026 15.0181 3.79961 14.9994C3.43972 14.9827 3.11393 14.7872 2.93705 14.4818C2.74015 14.1418 2.89789 13.4501 3.21336 12.0668L3.27621 11.7912C3.45213 11.0198 3.54009 10.6341 3.4855 10.2655C3.45276 10.0444 3.38288 9.83005 3.27866 9.63102C3.10493 9.29921 2.80456 9.03335 2.20382 8.50161L1.847 8.18577C0.562049 7.0484 -0.0804262 6.47972 0.00805212 5.93654C0.0263768 5.82405 0.0639569 5.71534 0.11923 5.61493C0.386109 5.13013 1.26005 5.05399 3.00792 4.90169C4.04044 4.81172 4.55671 4.76674 4.97026 4.52424C5.08626 4.45622 5.19521 4.37741 5.29557 4.28893C5.65337 3.97347 5.8446 3.50967 6.22704 2.58206Z" fill="#FFBA08"/>
</svg>
