<svg width="138" height="106" viewBox="0 0 138 106" fill="none" xmlns="http://www.w3.org/2000/svg">
<path d="M101 105L101 97M105 101L97 101" stroke="#DBE0E7" stroke-width="2" stroke-linecap="round"/>
<path d="M101 73L101 65M105 69L97 69" stroke="#DBE0E7" stroke-width="2" stroke-linecap="round"/>
<path d="M101 41L101 33M105 37L97 37" stroke="#3E96FC" stroke-width="2" stroke-linecap="round"/>
<path d="M101 9L101 1M105 5L97 5" stroke="#DBE0E7" stroke-width="2" stroke-linecap="round"/>
<path d="M37 9L37 1M41 5L33 5" stroke="#F3745A" stroke-width="2" stroke-linecap="round"/>
<path d="M5 9L5 1M9 5L1 5" stroke="#DBE0E7" stroke-width="2" stroke-linecap="round"/>
<path d="M37 41L37 33M41 37L33 37" stroke="#DBE0E7" stroke-width="2" stroke-linecap="round"/>
<path d="M5 41L5 33M9 37L1 37" stroke="#DBE0E7" stroke-width="2" stroke-linecap="round"/>
<path d="M133 105L133 97M137 101L129 101" stroke="#3E96FC" stroke-width="2" stroke-linecap="round"/>
<path d="M133 73L133 65M137 69L129 69" stroke="#DBE0E7" stroke-width="2" stroke-linecap="round"/>
<path d="M133 41L133 33M137 37L129 37" stroke="#DBE0E7" stroke-width="2" stroke-linecap="round"/>
<path d="M133 9L133 1M137 5L129 5" stroke="#DBE0E7" stroke-width="2" stroke-linecap="round"/>
<path d="M69 9L69 1M73 5L65 5" stroke="#DBE0E7" stroke-width="2" stroke-linecap="round"/>
<path d="M69 41L69 33M73 37L65 37" stroke="#DBE0E7" stroke-width="2" stroke-linecap="round"/>
<path d="M69 73L69 65M73 69L65 69" stroke="#DBE0E7" stroke-width="2" stroke-linecap="round"/>
</svg>
