<svg width="7" height="4" viewBox="0 0 7 4" fill="none" xmlns="http://www.w3.org/2000/svg">
<path d="M7 0.461212C7 0.588735 6.95598 0.690755 6.86792 0.767269L3.81132 3.8661C3.72327 3.95537 3.62264 4 3.50943 4C3.39623 4 3.28931 3.95537 3.18868 3.8661L0.132076 0.767269C0.0440252 0.678002 4.0907e-08 0.569607 4.24277e-08 0.442083C4.39484e-08 0.314559 0.0440252 0.21254 0.132076 0.136025C0.220126 0.0595112 0.320755 0.0148778 0.433962 0.00212551C0.54717 -0.0106268 0.654088 0.0340064 0.754717 0.136025L3.50943 2.9288L6.26415 0.136026C6.3522 0.0467587 6.45283 0.00212558 6.56604 0.00212558C6.67925 0.00212558 6.77987 0.0467587 6.86792 0.136026C6.95598 0.225292 7 0.333688 7 0.461212Z" fill="#1B283B"/>
</svg>
