<svg width="6" height="10" viewBox="0 0 6 10" fill="none" xmlns="http://www.w3.org/2000/svg">
<path d="M5.30818 10C5.1169 10 4.96387 9.93711 4.8491 9.81132L0.20085 5.44474C0.06695 5.31896 0 5.1752 0 5.01348C0 4.85175 0.06695 4.69901 0.20085 4.55526L4.8491 0.188679C4.983 0.0628931 5.14559 0 5.33687 0C5.52816 0 5.68119 0.0628931 5.79596 0.188679C5.91073 0.314465 5.97768 0.458221 5.99681 0.619946C6.01594 0.781671 5.94899 0.934412 5.79596 1.07817L1.6068 5.01348L5.79596 8.94879C5.92986 9.07457 5.99681 9.21833 5.99681 9.38005C5.99681 9.54178 5.92986 9.68554 5.79596 9.81132C5.66206 9.93711 5.49947 10 5.30818 10Z" fill="white"/>
</svg>
