<svg width="6" height="10" viewBox="0 0 6 10" fill="none" xmlns="http://www.w3.org/2000/svg">
<path d="M0.691817 -4.89618e-07C0.883103 -5.06341e-07 1.03613 0.0628924 1.1509 0.188678L5.79915 4.55526C5.93305 4.68104 6 4.8248 6 4.98652C6 5.14825 5.93305 5.30099 5.79915 5.44474L1.1509 9.81132C1.017 9.93711 0.854411 10 0.663125 10C0.471839 10 0.31881 9.93711 0.204039 9.81132C0.0892677 9.68554 0.0223178 9.54178 0.00318903 9.38005C-0.0159393 9.21833 0.0510105 9.06559 0.204039 8.92183L4.3932 4.98652L0.204038 1.05121C0.0701381 0.925426 0.00318828 0.781671 0.00318827 0.619946C0.00318825 0.458221 0.0701381 0.314465 0.204038 0.188678C0.337938 0.0628925 0.500531 -4.72896e-07 0.691817 -4.89618e-07Z" fill="#1B283B"/>
</svg>
