<svg width="131" height="55" viewBox="0 0 131 55" fill="none" xmlns="http://www.w3.org/2000/svg">
<path d="M25.336 9.31H21.943C20.071 9.31 19.564 9.349 18.823 10.714L13.87 19.801L8.995 10.714C8.293 9.349 7.786 9.31 5.914 9.31H2.287C1.117 9.31 0.961 10.012 1.468 10.909L10.633 26.158V35.401C10.633 36.61 11.023 37 12.232 37H15.391C16.561 37 16.99 36.61 16.99 35.401V26.236L26.155 10.909C26.662 10.012 26.506 9.31 25.336 9.31ZM48.5949 35.44L39.2739 10.558C38.9229 9.544 38.4159 9.31 37.3239 9.31H34.3209C33.2289 9.31 32.7609 9.544 32.3709 10.636L23.0499 35.44C22.6599 36.493 22.9329 37 24.1029 37H26.7939C28.7439 37 29.2509 36.688 29.6409 35.557L30.8889 31.891H40.5219L41.7309 35.557C42.0819 36.688 42.6669 37 44.6169 37H47.5419C48.6729 37 48.9849 36.493 48.5949 35.44ZM36.8559 20.698L38.8839 26.743H32.5659L34.5939 20.659C35.5299 17.89 35.4909 15.121 35.4909 15.121H35.8809C35.8809 15.121 35.9589 17.89 36.8559 20.698ZM69.9916 9.31H59.0326C57.8626 9.31 57.4336 9.7 57.4336 10.909V35.401C57.4336 36.61 57.8626 37 59.0326 37H70.1476C75.4516 37 79.3516 34.27 79.3516 29.317C79.3516 25.885 77.9866 23.623 75.6076 22.609V22.453C77.5186 21.127 78.2986 19.333 78.2986 16.681C78.2986 11.962 75.1786 9.31 69.9916 9.31ZM71.8636 17.578C71.8636 19.411 70.8496 20.23 69.0166 20.23H63.7906V14.926H69.0166C70.8496 14.926 71.8636 15.784 71.8636 17.578ZM72.6826 28.576C72.6826 30.487 71.7076 31.384 69.7576 31.384H63.7906V25.729H69.7576C71.7076 25.729 72.6826 26.704 72.6826 28.576ZM105.506 35.44L96.185 10.558C95.834 9.544 95.327 9.31 94.235 9.31H91.232C90.14 9.31 89.672 9.544 89.282 10.636L79.961 35.44C79.571 36.493 79.844 37 81.014 37H83.705C85.655 37 86.162 36.688 86.552 35.557L87.8 31.891H97.433L98.642 35.557C98.993 36.688 99.578 37 101.528 37H104.453C105.584 37 105.896 36.493 105.506 35.44ZM93.767 20.698L95.795 26.743H89.477L91.505 20.659C92.441 17.89 92.402 15.121 92.402 15.121H92.792C92.792 15.121 92.87 17.89 93.767 20.698ZM106.262 19.216V27.094C106.262 33.568 110.396 37.585 117.767 37.585C125.177 37.585 129.311 33.568 129.311 27.094V19.216C129.311 12.742 125.177 8.725 117.767 8.725C110.396 8.725 106.262 12.742 106.262 19.216ZM122.954 19.099V27.211C122.954 30.253 121.082 31.774 117.767 31.774C114.491 31.774 112.619 30.253 112.619 27.211V19.099C112.619 16.057 114.491 14.536 117.767 14.536C121.082 14.536 122.954 16.057 122.954 19.099Z" fill="#231F20"/>
<path d="M8.3656 51.977V54.3857H7.2496V53H2.2555V54.3857H1.1302L1.1395 51.977H1.4185C1.8277 51.9584 2.1129 51.6577 2.2741 51.0749C2.4415 50.4859 2.5438 49.6458 2.581 48.5546L2.6554 46.49H7.4263V51.977H8.3656ZM3.6412 48.6662C3.6102 49.5094 3.542 50.2131 3.4366 50.7773C3.3312 51.3353 3.1638 51.7352 2.9344 51.977H6.2359V47.513H3.6877L3.6412 48.6662ZM14.9538 46.49L12.1266 51.7445C11.8786 52.2095 11.581 52.5598 11.2338 52.7954C10.8928 53.0248 10.5208 53.1395 10.1178 53.1395C9.79538 53.1395 9.47608 53.0713 9.15988 52.9349L9.45748 51.9863C9.71168 52.0669 9.92248 52.1072 10.0899 52.1072C10.4805 52.1072 10.8029 51.9057 11.0571 51.5027L11.1594 51.3446L8.56468 46.49H9.85738L11.7825 50.3123L13.7634 46.49H14.9538ZM16.3085 46.49L17.843 48.6662L19.3775 46.49H20.7911L18.6056 49.6148L20.9678 53H19.5356L17.843 50.6285L16.1597 53H14.7647L17.1176 49.6613L14.9135 46.49H16.3085ZM26.6849 50.2565H25.4759V53H24.2855V46.49H25.4759V49.2149H26.7221L28.5914 46.49H29.8748L27.6521 49.6427L29.9585 53H28.5914L26.6849 50.2565ZM30.649 46.49H31.8394V51.1121L35.3362 46.49H36.4615V53H35.2711V48.3872L31.7743 53H30.649V46.49ZM42.8717 47.513H40.7141V53H39.5144V47.513H37.3661V46.49H42.8717V47.513ZM47.7631 51.4934H44.5081L43.8664 53H42.6202L45.5497 46.49H46.7401L49.6789 53H48.4141L47.7631 51.4934ZM47.3632 50.5448L46.1356 47.699L44.9173 50.5448H47.3632ZM50.547 46.49H51.7374V51.1121L55.2342 46.49H56.3595V53H55.1691V48.3872L51.6723 53H50.547V46.49ZM53.4393 46.0529C52.8813 46.0529 52.4597 45.9382 52.1745 45.7088C51.8955 45.4794 51.7529 45.1446 51.7467 44.7044H52.593C52.5992 44.9338 52.6736 45.1105 52.8162 45.2345C52.9588 45.3585 53.1665 45.4205 53.4393 45.4205C53.7059 45.4205 53.9136 45.3585 54.0624 45.2345C54.2174 45.1105 54.298 44.9338 54.3042 44.7044H55.1412C55.135 45.1384 54.9862 45.4732 54.6948 45.7088C54.4096 45.9382 53.9911 46.0529 53.4393 46.0529ZM61.0399 53.093C60.3827 53.093 59.7875 52.9504 59.2543 52.6652C58.7273 52.3738 58.3119 51.9739 58.0081 51.4655C57.7105 50.9571 57.5617 50.3836 57.5617 49.745C57.5617 49.1064 57.7136 48.5329 58.0174 48.0245C58.3212 47.5161 58.7366 47.1193 59.2636 46.8341C59.7968 46.5427 60.392 46.397 61.0492 46.397C61.5824 46.397 62.0691 46.49 62.5093 46.676C62.9495 46.862 63.3215 47.1317 63.6253 47.4851L62.8441 48.2198C62.3729 47.7114 61.7932 47.4572 61.105 47.4572C60.6586 47.4572 60.2587 47.5564 59.9053 47.7548C59.5519 47.947 59.276 48.2167 59.0776 48.5639C58.8792 48.9111 58.78 49.3048 58.78 49.745C58.78 50.1852 58.8792 50.5789 59.0776 50.9261C59.276 51.2733 59.5519 51.5461 59.9053 51.7445C60.2587 51.9367 60.6586 52.0328 61.105 52.0328C61.7932 52.0328 62.3729 51.7755 62.8441 51.2609L63.6253 52.0049C63.3215 52.3583 62.9464 52.628 62.5 52.814C62.0598 53 61.5731 53.093 61.0399 53.093ZM67.0077 50.2565H65.7987V53H64.6083V46.49H65.7987V49.2149H67.0449L68.9142 46.49H70.1976L67.9749 49.6427L70.2813 53H68.9142L67.0077 50.2565ZM73.9575 53.093C73.2941 53.093 72.6958 52.9504 72.1626 52.6652C71.6294 52.3738 71.2109 51.9739 70.9071 51.4655C70.6033 50.9509 70.4514 50.3774 70.4514 49.745C70.4514 49.1126 70.6033 48.5422 70.9071 48.0338C71.2109 47.5192 71.6294 47.1193 72.1626 46.8341C72.6958 46.5427 73.2941 46.397 73.9575 46.397C74.6209 46.397 75.2192 46.5427 75.7524 46.8341C76.2856 47.1193 76.7041 47.5161 77.0079 48.0245C77.3117 48.5329 77.4636 49.1064 77.4636 49.745C77.4636 50.3836 77.3117 50.9571 77.0079 51.4655C76.7041 51.9739 76.2856 52.3738 75.7524 52.6652C75.2192 52.9504 74.6209 53.093 73.9575 53.093ZM73.9575 52.0328C74.3915 52.0328 74.7821 51.9367 75.1293 51.7445C75.4765 51.5461 75.7493 51.2733 75.9477 50.9261C76.1461 50.5727 76.2453 50.179 76.2453 49.745C76.2453 49.311 76.1461 48.9204 75.9477 48.5732C75.7493 48.2198 75.4765 47.947 75.1293 47.7548C74.7821 47.5564 74.3915 47.4572 73.9575 47.4572C73.5235 47.4572 73.1329 47.5564 72.7857 47.7548C72.4385 47.947 72.1657 48.2198 71.9673 48.5732C71.7689 48.9204 71.6697 49.311 71.6697 49.745C71.6697 50.179 71.7689 50.5727 71.9673 50.9261C72.1657 51.2733 72.4385 51.5461 72.7857 51.7445C73.1329 51.9367 73.5235 52.0328 73.9575 52.0328ZM78.67 46.49H79.8604V51.1121L83.3572 46.49H84.4825V53H83.2921V48.3872L79.7953 53H78.67V46.49ZM81.5623 46.0529C81.0043 46.0529 80.5827 45.9382 80.2975 45.7088C80.0185 45.4794 79.8759 45.1446 79.8697 44.7044H80.716C80.7222 44.9338 80.7966 45.1105 80.9392 45.2345C81.0818 45.3585 81.2895 45.4205 81.5623 45.4205C81.8289 45.4205 82.0366 45.3585 82.1854 45.2345C82.3404 45.1105 82.421 44.9338 82.4272 44.7044H83.2642C83.258 45.1384 83.1092 45.4732 82.8178 45.7088C82.5326 45.9382 82.1141 46.0529 81.5623 46.0529ZM93.4815 51.9863V53H88.599V46.49H93.3513V47.5037H89.808V49.1963H92.9514V50.1914H89.808V51.9863H93.4815ZM101.144 51.977V54.3857H100.028V53H95.0339V54.3857H93.9086L93.9179 51.977H94.1969C94.6061 51.9584 94.8913 51.6577 95.0525 51.0749C95.2199 50.4859 95.3222 49.6458 95.3594 48.5546L95.4338 46.49H100.205V51.977H101.144ZM96.4196 48.6662C96.3886 49.5094 96.3204 50.2131 96.215 50.7773C96.1096 51.3353 95.9422 51.7352 95.7128 51.977H99.0143V47.513H96.4661L96.4196 48.6662ZM105.147 48.6941C105.928 48.6941 106.526 48.8708 106.942 49.2242C107.363 49.5714 107.574 50.0891 107.574 50.7773C107.574 51.4965 107.345 52.0483 106.886 52.4327C106.427 52.8109 105.782 53 104.951 53H102.152V46.49H103.343V48.6941H105.147ZM104.896 52.07C105.367 52.07 105.73 51.9615 105.984 51.7445C106.238 51.5275 106.365 51.2113 106.365 50.7959C106.365 50.0085 105.875 49.6148 104.896 49.6148H103.343V52.07H104.896ZM108.513 46.49H109.704V53H108.513V46.49Z" fill="#231F20"/>
</svg>
