<svg width="131" height="56" viewBox="0 0 131 56" fill="none" xmlns="http://www.w3.org/2000/svg">
<path d="M25.336 9.31H21.943C20.071 9.31 19.564 9.349 18.823 10.714L13.87 19.801L8.995 10.714C8.293 9.349 7.786 9.31 5.914 9.31H2.287C1.117 9.31 0.961 10.012 1.468 10.909L10.633 26.158V35.401C10.633 36.61 11.023 37 12.232 37H15.391C16.561 37 16.99 36.61 16.99 35.401V26.236L26.155 10.909C26.662 10.012 26.506 9.31 25.336 9.31ZM48.5949 35.44L39.2739 10.558C38.9229 9.544 38.4159 9.31 37.3239 9.31H34.3209C33.2289 9.31 32.7609 9.544 32.3709 10.636L23.0499 35.44C22.6599 36.493 22.9329 37 24.1029 37H26.7939C28.7439 37 29.2509 36.688 29.6409 35.557L30.8889 31.891H40.5219L41.7309 35.557C42.0819 36.688 42.6669 37 44.6169 37H47.5419C48.6729 37 48.9849 36.493 48.5949 35.44ZM36.8559 20.698L38.8839 26.743H32.5659L34.5939 20.659C35.5299 17.89 35.4909 15.121 35.4909 15.121H35.8809C35.8809 15.121 35.9589 17.89 36.8559 20.698ZM69.9916 9.31H59.0326C57.8626 9.31 57.4336 9.7 57.4336 10.909V35.401C57.4336 36.61 57.8626 37 59.0326 37H70.1476C75.4516 37 79.3516 34.27 79.3516 29.317C79.3516 25.885 77.9866 23.623 75.6076 22.609V22.453C77.5186 21.127 78.2986 19.333 78.2986 16.681C78.2986 11.962 75.1786 9.31 69.9916 9.31ZM71.8636 17.578C71.8636 19.411 70.8496 20.23 69.0166 20.23H63.7906V14.926H69.0166C70.8496 14.926 71.8636 15.784 71.8636 17.578ZM72.6826 28.576C72.6826 30.487 71.7076 31.384 69.7576 31.384H63.7906V25.729H69.7576C71.7076 25.729 72.6826 26.704 72.6826 28.576ZM105.506 35.44L96.185 10.558C95.834 9.544 95.327 9.31 94.235 9.31H91.232C90.14 9.31 89.672 9.544 89.282 10.636L79.961 35.44C79.571 36.493 79.844 37 81.014 37H83.705C85.655 37 86.162 36.688 86.552 35.557L87.8 31.891H97.433L98.642 35.557C98.993 36.688 99.578 37 101.528 37H104.453C105.584 37 105.896 36.493 105.506 35.44ZM93.767 20.698L95.795 26.743H89.477L91.505 20.659C92.441 17.89 92.402 15.121 92.402 15.121H92.792C92.792 15.121 92.87 17.89 93.767 20.698ZM106.262 19.216V27.094C106.262 33.568 110.396 37.585 117.767 37.585C125.177 37.585 129.311 33.568 129.311 27.094V19.216C129.311 12.742 125.177 8.725 117.767 8.725C110.396 8.725 106.262 12.742 106.262 19.216ZM122.954 19.099V27.211C122.954 30.253 121.082 31.774 117.767 31.774C114.491 31.774 112.619 30.253 112.619 27.211V19.099C112.619 16.057 114.491 14.536 117.767 14.536C121.082 14.536 122.954 16.057 122.954 19.099Z" fill="#231F20"/>
<path d="M8.3656 52.977V55.3857H7.2496V54H2.2555V55.3857H1.1302L1.1395 52.977H1.4185C1.8277 52.9584 2.1129 52.6577 2.2741 52.0749C2.4415 51.4859 2.5438 50.6458 2.581 49.5546L2.6554 47.49H7.4263V52.977H8.3656ZM3.6412 49.6662C3.6102 50.5094 3.542 51.2131 3.4366 51.7773C3.3312 52.3353 3.1638 52.7352 2.9344 52.977H6.2359V48.513H3.6877L3.6412 49.6662ZM14.9538 47.49L12.1266 52.7445C11.8786 53.2095 11.581 53.5598 11.2338 53.7954C10.8928 54.0248 10.5208 54.1395 10.1178 54.1395C9.79538 54.1395 9.47608 54.0713 9.15988 53.9349L9.45748 52.9863C9.71168 53.0669 9.92248 53.1072 10.0899 53.1072C10.4805 53.1072 10.8029 52.9057 11.0571 52.5027L11.1594 52.3446L8.56468 47.49H9.85738L11.7825 51.3123L13.7634 47.49H14.9538ZM16.3085 47.49L17.843 49.6662L19.3775 47.49H20.7911L18.6056 50.6148L20.9678 54H19.5356L17.843 51.6285L16.1597 54H14.7647L17.1176 50.6613L14.9135 47.49H16.3085ZM26.6849 51.2565H25.4759V54H24.2855V47.49H25.4759V50.2149H26.7221L28.5914 47.49H29.8748L27.6521 50.6427L29.9585 54H28.5914L26.6849 51.2565ZM30.649 47.49H31.8394V52.1121L35.3362 47.49H36.4615V54H35.2711V49.3872L31.7743 54H30.649V47.49ZM42.8717 48.513H40.7141V54H39.5144V48.513H37.3661V47.49H42.8717V48.513ZM47.7631 52.4934H44.5081L43.8664 54H42.6202L45.5497 47.49H46.7401L49.6789 54H48.4141L47.7631 52.4934ZM47.3632 51.5448L46.1356 48.699L44.9173 51.5448H47.3632ZM50.547 47.49H51.7374V52.1121L55.2342 47.49H56.3595V54H55.1691V49.3872L51.6723 54H50.547V47.49ZM53.4393 47.0529C52.8813 47.0529 52.4597 46.9382 52.1745 46.7088C51.8955 46.4794 51.7529 46.1446 51.7467 45.7044H52.593C52.5992 45.9338 52.6736 46.1105 52.8162 46.2345C52.9588 46.3585 53.1665 46.4205 53.4393 46.4205C53.7059 46.4205 53.9136 46.3585 54.0624 46.2345C54.2174 46.1105 54.298 45.9338 54.3042 45.7044H55.1412C55.135 46.1384 54.9862 46.4732 54.6948 46.7088C54.4096 46.9382 53.9911 47.0529 53.4393 47.0529ZM61.0399 54.093C60.3827 54.093 59.7875 53.9504 59.2543 53.6652C58.7273 53.3738 58.3119 52.9739 58.0081 52.4655C57.7105 51.9571 57.5617 51.3836 57.5617 50.745C57.5617 50.1064 57.7136 49.5329 58.0174 49.0245C58.3212 48.5161 58.7366 48.1193 59.2636 47.8341C59.7968 47.5427 60.392 47.397 61.0492 47.397C61.5824 47.397 62.0691 47.49 62.5093 47.676C62.9495 47.862 63.3215 48.1317 63.6253 48.4851L62.8441 49.2198C62.3729 48.7114 61.7932 48.4572 61.105 48.4572C60.6586 48.4572 60.2587 48.5564 59.9053 48.7548C59.5519 48.947 59.276 49.2167 59.0776 49.5639C58.8792 49.9111 58.78 50.3048 58.78 50.745C58.78 51.1852 58.8792 51.5789 59.0776 51.9261C59.276 52.2733 59.5519 52.5461 59.9053 52.7445C60.2587 52.9367 60.6586 53.0328 61.105 53.0328C61.7932 53.0328 62.3729 52.7755 62.8441 52.2609L63.6253 53.0049C63.3215 53.3583 62.9464 53.628 62.5 53.814C62.0598 54 61.5731 54.093 61.0399 54.093ZM67.0077 51.2565H65.7987V54H64.6083V47.49H65.7987V50.2149H67.0449L68.9142 47.49H70.1976L67.9749 50.6427L70.2813 54H68.9142L67.0077 51.2565ZM73.9575 54.093C73.2941 54.093 72.6958 53.9504 72.1626 53.6652C71.6294 53.3738 71.2109 52.9739 70.9071 52.4655C70.6033 51.9509 70.4514 51.3774 70.4514 50.745C70.4514 50.1126 70.6033 49.5422 70.9071 49.0338C71.2109 48.5192 71.6294 48.1193 72.1626 47.8341C72.6958 47.5427 73.2941 47.397 73.9575 47.397C74.6209 47.397 75.2192 47.5427 75.7524 47.8341C76.2856 48.1193 76.7041 48.5161 77.0079 49.0245C77.3117 49.5329 77.4636 50.1064 77.4636 50.745C77.4636 51.3836 77.3117 51.9571 77.0079 52.4655C76.7041 52.9739 76.2856 53.3738 75.7524 53.6652C75.2192 53.9504 74.6209 54.093 73.9575 54.093ZM73.9575 53.0328C74.3915 53.0328 74.7821 52.9367 75.1293 52.7445C75.4765 52.5461 75.7493 52.2733 75.9477 51.9261C76.1461 51.5727 76.2453 51.179 76.2453 50.745C76.2453 50.311 76.1461 49.9204 75.9477 49.5732C75.7493 49.2198 75.4765 48.947 75.1293 48.7548C74.7821 48.5564 74.3915 48.4572 73.9575 48.4572C73.5235 48.4572 73.1329 48.5564 72.7857 48.7548C72.4385 48.947 72.1657 49.2198 71.9673 49.5732C71.7689 49.9204 71.6697 50.311 71.6697 50.745C71.6697 51.179 71.7689 51.5727 71.9673 51.9261C72.1657 52.2733 72.4385 52.5461 72.7857 52.7445C73.1329 52.9367 73.5235 53.0328 73.9575 53.0328ZM78.67 47.49H79.8604V52.1121L83.3572 47.49H84.4825V54H83.2921V49.3872L79.7953 54H78.67V47.49ZM81.5623 47.0529C81.0043 47.0529 80.5827 46.9382 80.2975 46.7088C80.0185 46.4794 79.8759 46.1446 79.8697 45.7044H80.716C80.7222 45.9338 80.7966 46.1105 80.9392 46.2345C81.0818 46.3585 81.2895 46.4205 81.5623 46.4205C81.8289 46.4205 82.0366 46.3585 82.1854 46.2345C82.3404 46.1105 82.421 45.9338 82.4272 45.7044H83.2642C83.258 46.1384 83.1092 46.4732 82.8178 46.7088C82.5326 46.9382 82.1141 47.0529 81.5623 47.0529ZM93.4815 52.9863V54H88.599V47.49H93.3513V48.5037H89.808V50.1963H92.9514V51.1914H89.808V52.9863H93.4815ZM101.144 52.977V55.3857H100.028V54H95.0339V55.3857H93.9086L93.9179 52.977H94.1969C94.6061 52.9584 94.8913 52.6577 95.0525 52.0749C95.2199 51.4859 95.3222 50.6458 95.3594 49.5546L95.4338 47.49H100.205V52.977H101.144ZM96.4196 49.6662C96.3886 50.5094 96.3204 51.2131 96.215 51.7773C96.1096 52.3353 95.9422 52.7352 95.7128 52.977H99.0143V48.513H96.4661L96.4196 49.6662ZM105.147 49.6941C105.928 49.6941 106.526 49.8708 106.942 50.2242C107.363 50.5714 107.574 51.0891 107.574 51.7773C107.574 52.4965 107.345 53.0483 106.886 53.4327C106.427 53.8109 105.782 54 104.951 54H102.152V47.49H103.343V49.6941H105.147ZM104.896 53.07C105.367 53.07 105.73 52.9615 105.984 52.7445C106.238 52.5275 106.365 52.2113 106.365 51.7959C106.365 51.0085 105.875 50.6148 104.896 50.6148H103.343V53.07H104.896ZM108.513 47.49H109.704V54H108.513V47.49Z" fill="#231F20"/>
</svg>
