<svg width="46" height="36" viewBox="0 0 46 36" fill="none" xmlns="http://www.w3.org/2000/svg">
<path d="M41.4 28.1739V32.8696C41.4 33.2847 41.2385 33.6828 40.9509 33.9763C40.6633 34.2699 40.2733 34.4348 39.8667 34.4348H35.2667C34.86 34.4348 34.47 34.2699 34.1824 33.9763C33.8949 33.6828 33.7333 33.2847 33.7333 32.8696V28.1739H41.4ZM12.2667 28.1739V32.8696C12.2667 33.2847 12.1051 33.6828 11.8176 33.9763C11.53 34.2699 11.14 34.4348 10.7333 34.4348H6.13333C5.72667 34.4348 5.33666 34.2699 5.0491 33.9763C4.76155 33.6828 4.6 33.2847 4.6 32.8696V28.1739H12.2667ZM41.4 15.6522L35.6692 2.50436C35.5502 2.22621 35.3547 1.98935 35.1063 1.82261C34.8578 1.65587 34.5673 1.56645 34.27 1.56523H11.73C11.4327 1.56645 11.1422 1.65587 10.8937 1.82261C10.6453 1.98935 10.4498 2.22621 10.3308 2.50436L4.6 15.6522H41.4Z" fill="#D8EAFE"/>
<path d="M44.4667 14.087H42.3967L37.0683 1.85871C36.8296 1.30456 36.4377 0.833549 35.9407 0.503397C35.4436 0.173246 34.863 -0.00169719 34.27 1.24113e-05H11.73C11.137 -0.00169719 10.5564 0.173246 10.0593 0.503397C9.56226 0.833549 9.17036 1.30456 8.93167 1.85871L3.60333 14.087H1.53333C1.12667 14.087 0.736659 14.2519 0.449103 14.5454C0.161547 14.8389 0 15.2371 0 15.6522C0 16.0673 0.161547 16.4654 0.449103 16.759C0.736659 17.0525 1.12667 17.2174 1.53333 17.2174H3.06667V32.8696C3.06667 33.6998 3.38976 34.496 3.96487 35.0831C4.53998 35.6702 5.32 36 6.13333 36H10.7333C11.5467 36 12.3267 35.6702 12.9018 35.0831C13.4769 34.496 13.8 33.6998 13.8 32.8696V29.7391H32.2V32.8696C32.2 33.6998 32.5231 34.496 33.0982 35.0831C33.6733 35.6702 34.4533 36 35.2667 36H39.8667C40.68 36 41.46 35.6702 42.0351 35.0831C42.6102 34.496 42.9333 33.6998 42.9333 32.8696V17.2174H44.4667C44.8733 17.2174 45.2633 17.0525 45.5509 16.759C45.8385 16.4654 46 16.0673 46 15.6522C46 15.2371 45.8385 14.8389 45.5509 14.5454C45.2633 14.2519 44.8733 14.087 44.4667 14.087ZM11.73 3.13045H34.27L39.0425 14.087H6.9575L11.73 3.13045ZM10.7333 32.8696H6.13333V29.7391H10.7333V32.8696ZM35.2667 32.8696V29.7391H39.8667V32.8696H35.2667ZM39.8667 26.6087H6.13333V17.2174H39.8667V26.6087Z" fill="#3E96FC"/>
<path d="M10.7333 23.4783H13.8C14.2067 23.4783 14.5967 23.3134 14.8842 23.0198C15.1718 22.7263 15.3333 22.3282 15.3333 21.913C15.3333 21.4979 15.1718 21.0998 14.8842 20.8063C14.5967 20.5127 14.2067 20.3478 13.8 20.3478H10.7333C10.3267 20.3478 9.93666 20.5127 9.6491 20.8063C9.36155 21.0998 9.2 21.4979 9.2 21.913C9.2 22.3282 9.36155 22.7263 9.6491 23.0198C9.93666 23.3134 10.3267 23.4783 10.7333 23.4783ZM32.2 23.4783H35.2667C35.6733 23.4783 36.0633 23.3134 36.3509 23.0198C36.6385 22.7263 36.8 22.3282 36.8 21.913C36.8 21.4979 36.6385 21.0998 36.3509 20.8063C36.0633 20.5127 35.6733 20.3478 35.2667 20.3478H32.2C31.7933 20.3478 31.4033 20.5127 31.1158 20.8063C30.8282 21.0998 30.6667 21.4979 30.6667 21.913C30.6667 22.3282 30.8282 22.7263 31.1158 23.0198C31.4033 23.3134 31.7933 23.4783 32.2 23.4783Z" fill="#3E96FC"/>
</svg>
