<svg width="35" height="36" viewBox="0 0 35 36" fill="none" xmlns="http://www.w3.org/2000/svg">
<path fill-rule="evenodd" clip-rule="evenodd" d="M11.8469 24.6667C11.8469 23.0558 13.1467 21.75 14.7502 21.75H20.1937C21.7971 21.75 23.0969 23.0558 23.0969 24.6667V33.7812C23.0969 34.3853 22.6095 34.875 22.0082 34.875C21.4069 34.875 20.9195 34.3853 20.9195 33.7812V24.6667C20.9195 24.264 20.5946 23.9375 20.1937 23.9375H14.7502C14.3493 23.9375 14.0243 24.264 14.0243 24.6667V33.7812C14.0243 34.3853 13.5369 34.875 12.9356 34.875C12.3344 34.875 11.8469 34.3853 11.8469 33.7812V24.6667Z" fill="#3E96FC"/>
<path fill-rule="evenodd" clip-rule="evenodd" d="M5.47193 16.125V27.375C5.47193 29.1746 5.47432 30.4111 5.5992 31.3399C5.71972 32.2363 5.93547 32.6758 6.24078 32.9812C6.54609 33.2865 6.98564 33.5022 7.88207 33.6227C8.81086 33.7476 10.0474 33.75 11.8469 33.75H23.0969C24.8965 33.75 26.133 33.7476 27.0618 33.6227C27.9582 33.5022 28.3978 33.2865 28.7031 32.9812C29.0084 32.6758 29.2241 32.2363 29.3447 31.3399C29.4695 30.4111 29.4719 29.1746 29.4719 27.375V16.125H31.7219V27.4555C31.722 29.1548 31.722 30.5434 31.5746 31.6397C31.4205 32.7856 31.0871 33.7791 30.2941 34.5721C29.501 35.3652 28.5075 35.6986 27.3616 35.8527C26.2653 36.0001 24.8767 36 23.1775 36H11.7664C10.0671 36 8.67855 36.0001 7.58226 35.8527C6.43633 35.6986 5.44283 35.3652 4.64979 34.5721C3.85675 33.7791 3.52333 32.7856 3.36926 31.6397C3.22187 30.5434 3.2219 29.1548 3.22193 27.4555L3.22193 16.125H5.47193Z" fill="#3E96FC"/>
<path fill-rule="evenodd" clip-rule="evenodd" d="M7.21487 3.25484e-06C7.2348 4.93122e-06 7.25479 6.6076e-06 7.27484 6.6076e-06L27.729 3.25484e-06C28.3806 -5.03893e-05 28.9655 -9.85572e-05 29.4481 0.057604C29.9754 0.120664 30.5033 0.263817 30.9792 0.63539C31.4551 1.00696 31.722 1.48434 31.9111 1.98065C32.0841 2.43479 32.2259 3.00228 32.3839 3.63441L34.6618 12.7459C34.747 13.0867 34.821 13.3828 34.8695 13.6298C34.9198 13.8861 34.9583 14.1621 34.9386 14.4533C34.8555 15.6771 34.0357 16.727 32.8686 17.1044C32.5892 17.1948 32.3085 17.224 32.0454 17.2372C31.7903 17.25 31.479 17.25 31.119 17.25H31.0921C31.0453 17.25 30.9992 17.25 30.9538 17.25C30.0886 17.2504 29.466 17.2506 28.9176 17.1229C27.6639 16.8308 26.5885 16.0584 25.9097 14.9906C25.0566 16.3316 23.5741 17.2102 21.9079 17.2487C21.8513 17.25 21.7896 17.25 21.704 17.25H21.6773C21.5917 17.25 21.5301 17.25 21.4734 17.2487C19.8074 17.2102 18.325 16.3317 17.4719 14.991C16.6188 16.3317 15.1364 17.2102 13.4704 17.2487C13.4138 17.25 13.3521 17.25 13.2665 17.25H13.2398C13.1542 17.25 13.0926 17.25 13.0359 17.2487C11.3698 17.2102 9.88724 16.3316 9.03418 14.9906C8.35534 16.0584 7.27991 16.8308 6.02626 17.1229C5.47785 17.2506 4.85523 17.2504 3.99002 17.25C3.94461 17.25 3.89854 17.25 3.85177 17.25H3.82488C3.46483 17.25 3.1536 17.25 2.89846 17.2372C2.6354 17.224 2.35469 17.1948 2.07525 17.1044C0.908154 16.727 0.0883988 15.6771 0.00528552 14.4533C-0.0144893 14.1621 0.0240206 13.8861 0.0743404 13.6298C0.122831 13.3829 0.196871 13.0867 0.282066 12.746L2.5454 3.69264C2.55027 3.67319 2.55511 3.65379 2.55995 3.63445C2.71793 3.0023 2.85976 2.43479 3.03277 1.98065C3.22185 1.48434 3.48875 1.00696 3.96465 0.63539C4.44055 0.263817 4.96841 0.120664 5.49576 0.057604C5.97831 -9.85572e-05 6.56328 -5.03893e-05 7.21487 3.25484e-06ZM5.76291 2.29169C5.46003 2.32791 5.38204 2.38331 5.34933 2.40885C5.31662 2.43439 5.24395 2.49662 5.13535 2.78167C5.01599 3.095 4.90539 3.52969 4.72822 4.23835L2.47145 13.2654C2.37782 13.64 2.31824 13.8797 2.28219 14.0633C2.24672 14.2439 2.24986 14.297 2.25011 14.3008C2.27089 14.6068 2.47583 14.8693 2.7676 14.9636C2.7676 14.9636 2.77971 14.9678 2.81875 14.9735C2.85941 14.9794 2.91969 14.9855 3.0112 14.99C3.20307 14.9997 3.4572 15 3.85177 15C4.91315 15 5.25339 14.9927 5.51577 14.9315C6.33902 14.7398 7.01954 14.1633 7.34406 13.3828C7.44764 13.1336 7.5091 12.8089 7.67956 11.7861L7.68232 11.7695C7.70237 11.6492 7.72185 11.5323 7.74 11.4419C7.74944 11.3949 7.76351 11.3292 7.78349 11.2609L7.78451 11.2574C7.79701 11.2145 7.84636 11.0448 7.96843 10.8748C8.49212 10.1458 9.57675 10.1458 10.1004 10.8748C10.2225 11.0448 10.2719 11.2145 10.2844 11.2574L10.2854 11.2609C10.3054 11.3292 10.3194 11.3949 10.3289 11.4419C10.347 11.5323 10.3665 11.6492 10.3865 11.7695L10.5422 12.7035C10.5594 12.8066 10.565 12.8396 10.57 12.8663C10.8017 14.0819 11.8508 14.9707 13.088 14.9993C13.1151 14.9999 13.1486 15 13.2532 15C13.3577 15 13.3913 14.9999 13.4184 14.9993C14.6556 14.9707 15.7047 14.0819 15.9363 12.8663C15.9414 12.8396 15.947 12.8066 15.9642 12.7035L16.1199 11.7693C16.1399 11.649 16.1594 11.5322 16.1775 11.4419C16.1869 11.3949 16.201 11.3292 16.221 11.2609L16.222 11.2574C16.2345 11.2144 16.2839 11.0448 16.4059 10.8748C16.9296 10.1458 18.0142 10.1458 18.5379 10.8748C18.66 11.0448 18.7094 11.2145 18.7218 11.2574L18.7229 11.2609C18.7428 11.3292 18.7569 11.3949 18.7664 11.4419C18.7845 11.5322 18.804 11.649 18.824 11.7693L18.9797 12.7035C18.9969 12.8066 19.0025 12.8396 19.0075 12.8663C19.2392 14.0819 20.2883 14.9707 21.5255 14.9993C21.5526 14.9999 21.5861 15 21.6907 15C21.7952 15 21.8288 14.9999 21.8559 14.9993C23.0931 14.9707 24.1422 14.0819 24.3738 12.8663C24.3789 12.8396 24.3845 12.8066 24.4017 12.7035L24.5574 11.7693C24.5774 11.649 24.5969 11.5322 24.615 11.4419C24.6244 11.3949 24.6385 11.3292 24.6585 11.2609L24.6595 11.2574C24.672 11.2144 24.7214 11.0448 24.8434 10.8748C25.3671 10.1458 26.4517 10.1458 26.9754 10.8748C27.0975 11.0448 27.1468 11.2144 27.1593 11.2574L27.1604 11.2609C27.1803 11.3292 27.1944 11.3949 27.2039 11.4419C27.222 11.5322 27.2415 11.649 27.2615 11.7693L27.2643 11.7861C27.4348 12.8089 27.4962 13.1336 27.5998 13.3828C27.9243 14.1633 28.6048 14.7398 29.4281 14.9315C29.6905 14.9927 30.0307 15 31.0921 15C31.4867 15 31.7408 14.9997 31.9327 14.99C32.0242 14.9855 32.0844 14.9794 32.1251 14.9735C32.1641 14.9678 32.1763 14.9636 32.1763 14.9636C32.468 14.8693 32.673 14.6068 32.6937 14.3008C32.694 14.297 32.6971 14.2439 32.6617 14.0633C32.6256 13.8797 32.566 13.64 32.4724 13.2654L30.2156 4.23835C30.0385 3.52969 29.9279 3.095 29.8085 2.78167C29.6999 2.49662 29.6272 2.43439 29.5945 2.40885C29.5618 2.38331 29.4838 2.32791 29.1809 2.29169C28.848 2.25188 28.3995 2.25001 27.669 2.25001H7.27484C6.54437 2.25001 6.09584 2.25188 5.76291 2.29169Z" fill="#3E96FC"/>
</svg>
