<svg width="26" height="36" viewBox="0 0 26 36" fill="none" xmlns="http://www.w3.org/2000/svg">
<path d="M5.77778 12.1224C5.77778 11.8302 5.89191 11.5499 6.09508 11.3432C6.29824 11.1365 6.57379 11.0204 6.86111 11.0204H19.1389C19.4262 11.0204 19.7018 11.1365 19.9049 11.3432C20.1081 11.5499 20.2222 11.8302 20.2222 12.1224C20.2222 12.4147 20.1081 12.695 19.9049 12.9017C19.7018 13.1084 19.4262 13.2245 19.1389 13.2245H6.86111C6.57379 13.2245 6.29824 13.1084 6.09508 12.9017C5.89191 12.695 5.77778 12.4147 5.77778 12.1224ZM6.86111 0C6.57379 0 6.29824 0.116108 6.09508 0.32278C5.89191 0.529453 5.77778 0.809761 5.77778 1.10204C5.77778 1.39432 5.89191 1.67463 6.09508 1.8813C6.29824 2.08797 6.57379 2.20408 6.86111 2.20408H7.22222V3.67347H5.05556C3.71474 3.67347 2.42884 4.2153 1.48074 5.17978C0.532638 6.14425 1.66702e-07 7.45236 1.66702e-07 8.81633V28.6531C-0.000311929 29.89 0.437608 31.0856 1.23349 32.0207C2.02937 32.9558 3.12989 33.5678 4.33333 33.7445V34.898C4.33333 35.1902 4.44747 35.4705 4.65063 35.6772C4.8538 35.8839 5.12935 36 5.41667 36C5.70398 36 5.97953 35.8839 6.1827 35.6772C6.38586 35.4705 6.5 35.1902 6.5 34.898V33.7959H19.5V34.898C19.5 35.1902 19.6141 35.4705 19.8173 35.6772C20.0205 35.8839 20.296 36 20.5833 36C20.8706 36 21.1462 35.8839 21.3494 35.6772C21.5525 35.4705 21.6667 35.1902 21.6667 34.898V33.7445C22.87 33.5675 23.9703 32.9554 24.7662 32.0204C25.562 31.0853 26 29.8899 26 28.6531V8.81633C26 7.45236 25.4674 6.14425 24.5193 5.17978C23.5712 4.2153 22.2853 3.67347 20.9444 3.67347H18.7778V2.20408H19.1389C19.4262 2.20408 19.7018 2.08797 19.9049 1.8813C20.1081 1.67463 20.2222 1.39432 20.2222 1.10204C20.2222 0.809761 20.1081 0.529453 19.9049 0.32278C19.7018 0.116108 19.4262 0 19.1389 0H6.86111ZM16.6111 2.20408V3.67347H9.38889V2.20408H16.6111ZM5.05556 5.87755H20.9444C21.7106 5.87755 22.4454 6.18717 22.9872 6.7383C23.529 7.28943 23.8333 8.03691 23.8333 8.81633V28.6531C23.8333 29.4325 23.529 30.18 22.9872 30.7311C22.4454 31.2822 21.7106 31.5918 20.9444 31.5918H5.05556C4.28937 31.5918 3.55457 31.2822 3.0128 30.7311C2.47103 30.18 2.16667 29.4325 2.16667 28.6531V8.81633C2.16667 8.03691 2.47103 7.28943 3.0128 6.7383C3.55457 6.18717 4.28937 5.87755 5.05556 5.87755Z" fill="#3E96FC"/>
<path fill-rule="evenodd" clip-rule="evenodd" d="M5.05556 5.87755H20.9444C21.7106 5.87755 22.4454 6.18717 22.9872 6.7383C23.529 7.28943 23.8333 8.03691 23.8333 8.81633V28.6531C23.8333 29.4325 23.529 30.18 22.9872 30.7311C22.4454 31.2822 21.7106 31.5918 20.9444 31.5918H5.05556C4.28937 31.5918 3.55457 31.2822 3.0128 30.7311C2.47103 30.18 2.16667 29.4325 2.16667 28.6531V8.81633C2.16667 8.03691 2.47103 7.28943 3.0128 6.7383C3.55457 6.18717 4.28937 5.87755 5.05556 5.87755ZM6.09508 11.3432C5.89191 11.5499 5.77778 11.8302 5.77778 12.1224C5.77778 12.4147 5.89191 12.695 6.09508 12.9017C6.29824 13.1084 6.57379 13.2245 6.86111 13.2245H19.1389C19.4262 13.2245 19.7018 13.1084 19.9049 12.9017C20.1081 12.695 20.2222 12.4147 20.2222 12.1224C20.2222 11.8302 20.1081 11.5499 19.9049 11.3432C19.7018 11.1365 19.4262 11.0204 19.1389 11.0204H6.86111C6.57379 11.0204 6.29824 11.1365 6.09508 11.3432Z" fill="#3E96FC"/>
<path fill-rule="evenodd" clip-rule="evenodd" d="M5.05556 5.87755H20.9444C21.7106 5.87755 22.4454 6.18717 22.9872 6.7383C23.529 7.28943 23.8333 8.03691 23.8333 8.81633V28.6531C23.8333 29.4325 23.529 30.18 22.9872 30.7311C22.4454 31.2822 21.7106 31.5918 20.9444 31.5918H5.05556C4.28937 31.5918 3.55457 31.2822 3.0128 30.7311C2.47103 30.18 2.16667 29.4325 2.16667 28.6531V8.81633C2.16667 8.03691 2.47103 7.28943 3.0128 6.7383C3.55457 6.18717 4.28937 5.87755 5.05556 5.87755ZM6.09508 11.3432C5.89191 11.5499 5.77778 11.8302 5.77778 12.1224C5.77778 12.4147 5.89191 12.695 6.09508 12.9017C6.29824 13.1084 6.57379 13.2245 6.86111 13.2245H19.1389C19.4262 13.2245 19.7018 13.1084 19.9049 12.9017C20.1081 12.695 20.2222 12.4147 20.2222 12.1224C20.2222 11.8302 20.1081 11.5499 19.9049 11.3432C19.7018 11.1365 19.4262 11.0204 19.1389 11.0204H6.86111C6.57379 11.0204 6.29824 11.1365 6.09508 11.3432Z" fill="#D8EAFE"/>
</svg>
