<svg width="42" height="38" viewBox="0 0 42 38" fill="none" xmlns="http://www.w3.org/2000/svg">
<path d="M12.1124 13.3745H16.557V17.8743C16.557 18.1727 16.6741 18.4588 16.8825 18.6698C17.0909 18.8808 17.3735 18.9993 17.6682 18.9993H22.1129C22.4076 18.9993 22.6902 18.8808 22.8986 18.6698C23.107 18.4588 23.224 18.1727 23.224 17.8743V13.3745H27.6687C27.9634 13.3745 28.246 13.256 28.4544 13.045C28.6628 12.8341 28.7799 12.5479 28.7799 12.2496V7.74974C28.7799 7.45138 28.6628 7.16524 28.4544 6.95427C28.246 6.7433 27.9634 6.62478 27.6687 6.62478H23.224V2.12496C23.224 1.8266 23.107 1.54046 22.8986 1.32949C22.6902 1.11852 22.4076 1 22.1129 1H17.6682C17.3735 1 17.0909 1.11852 16.8825 1.32949C16.6741 1.54046 16.557 1.8266 16.557 2.12496V6.62478H12.1124C11.8177 6.62478 11.535 6.7433 11.3267 6.95427C11.1183 7.16524 11.0012 7.45138 11.0012 7.74974V12.2496C11.0012 12.5479 11.1183 12.8341 11.3267 13.045C11.535 13.256 11.8177 13.3745 12.1124 13.3745ZM40.4603 24.6459C40.2444 24.3479 39.9725 24.096 39.6602 23.9047C39.3479 23.7134 39.0014 23.5864 38.6404 23.5311C38.2795 23.4758 37.9114 23.4931 37.5571 23.5823C37.2029 23.6714 36.8695 23.8304 36.5761 24.0503L28.2653 30.2503H19.8892C19.5945 30.2503 19.3118 30.1317 19.1034 29.9208C18.8951 29.7098 18.778 29.4237 18.778 29.1253C18.778 28.8269 18.8951 28.5408 19.1034 28.3298C19.3118 28.1189 19.5945 28.0003 19.8892 28.0003H25.3228C26.4339 28.0003 27.4583 27.2361 27.6402 26.1294C27.694 25.8063 27.6774 25.4751 27.5918 25.1591C27.5062 24.8431 27.3535 24.5498 27.1445 24.2996C26.9355 24.0494 26.675 23.8483 26.3814 23.7105C26.0878 23.5726 25.768 23.5012 25.4443 23.5012H14.3326C12.4585 23.5008 10.6413 24.1524 9.18514 25.3469L5.95581 28.0003H2.11117C1.81709 28.0024 1.53562 28.1215 1.32767 28.3321C1.11971 28.5426 1.002 28.8276 1 29.1253V35.875C1.002 36.1728 1.11971 36.4577 1.32767 36.6683C1.53562 36.8788 1.81709 36.998 2.11117 37H26.2096C27.751 36.9963 29.2513 36.4973 30.4946 35.5748L39.8721 28.5741C40.464 28.1316 40.8583 27.4696 40.9686 26.7331C41.0789 25.9967 40.8961 25.246 40.4603 24.6459Z" fill="#D8EAFE" stroke="#3E96FC" stroke-width="2"/>
</svg>
