<svg width="138" height="106" viewBox="0 0 138 106" fill="none" xmlns="http://www.w3.org/2000/svg">
<path d="M37 105L37 97M33 101L41 101" stroke="#DBE0E7" stroke-width="2" stroke-linecap="round"/>
<path d="M37 73L37 65M33 69L41 69" stroke="#DBE0E7" stroke-width="2" stroke-linecap="round"/>
<path d="M37 41L37 33M33 37L41 37" stroke="#DBE0E7" stroke-width="2" stroke-linecap="round"/>
<path d="M37 9L37 1M33 5L41 5" stroke="#DBE0E7" stroke-width="2" stroke-linecap="round"/>
<path d="M101 9L101 1M97 5L105 5" stroke="#F3745A" stroke-width="2" stroke-linecap="round"/>
<path d="M133 9L133 1M129 5L137 5" stroke="#DBE0E7" stroke-width="2" stroke-linecap="round"/>
<path d="M101 41L101 33M97 37L105 37" stroke="#DBE0E7" stroke-width="2" stroke-linecap="round"/>
<path d="M133 41L133 33M129 37L137 37" stroke="#DBE0E7" stroke-width="2" stroke-linecap="round"/>
<path d="M5 105L5 97M1 101L9 101" stroke="#DBE0E7" stroke-width="2" stroke-linecap="round"/>
<path d="M5 73L5 65M1 69L9 69" stroke="#3E96FC" stroke-width="2" stroke-linecap="round"/>
<path d="M5 41L5 33M1 37L9 37" stroke="#DBE0E7" stroke-width="2" stroke-linecap="round"/>
<path d="M5 9L5 1M1 5L9 5" stroke="#DBE0E7" stroke-width="2" stroke-linecap="round"/>
<path d="M69 9L69 1M65 5L73 5" stroke="#DBE0E7" stroke-width="2" stroke-linecap="round"/>
<path d="M69 41L69 33M65 37L73 37" stroke="#DBE0E7" stroke-width="2" stroke-linecap="round"/>
</svg>
