<svg width="138" height="106" viewBox="0 0 138 106" fill="none" xmlns="http://www.w3.org/2000/svg">
<path d="M101 1L101 9M105 5L97 5" stroke="#DBE0E7" stroke-width="2" stroke-linecap="round"/>
<path d="M101 33L101 41M105 37L97 37" stroke="#DBE0E7" stroke-width="2" stroke-linecap="round"/>
<path d="M101 65L101 73M105 69L97 69" stroke="#DBE0E7" stroke-width="2" stroke-linecap="round"/>
<path d="M101 97L101 105M105 101L97 101" stroke="#F3745A" stroke-width="2" stroke-linecap="round"/>
<path d="M37 65L37 73M41 69L33 69" stroke="#3E96FC" stroke-width="2" stroke-linecap="round"/>
<path d="M5 97L5 105M9 101L1 101" stroke="#DBE0E7" stroke-width="2" stroke-linecap="round"/>
<path d="M37 97L37 105M41 101L33 101" stroke="#DBE0E7" stroke-width="2" stroke-linecap="round"/>
<path d="M5 65L5 73M9 69L1 69" stroke="#DBE0E7" stroke-width="2" stroke-linecap="round"/>
<path d="M133 1L133 9M137 5L129 5" stroke="#DBE0E7" stroke-width="2" stroke-linecap="round"/>
<path d="M133 33L133 41M137 37L129 37" stroke="#3E96FC" stroke-width="2" stroke-linecap="round"/>
<path d="M133 65L133 73M137 69L129 69" stroke="#DBE0E7" stroke-width="2" stroke-linecap="round"/>
<path d="M133 97L133 105M137 101L129 101" stroke="#DBE0E7" stroke-width="2" stroke-linecap="round"/>
<path d="M69 97L69 105M73 101L65 101" stroke="#DBE0E7" stroke-width="2" stroke-linecap="round"/>
<path d="M69 65L69 73M73 69L65 69" stroke="#DBE0E7" stroke-width="2" stroke-linecap="round"/>
</svg>
