<svg width="36" height="36" viewBox="0 0 36 36" fill="none" xmlns="http://www.w3.org/2000/svg">
<path d="M18 36C8.05781 36 0 27.9422 0 18C0 8.05781 8.05781 0 18 0C27.9422 0 36 8.05781 36 18C36 27.9422 27.9422 36 18 36ZM16.3125 18C16.3125 18.5625 16.5938 19.0898 17.0648 19.343L23.8148 23.843C24.5883 24.4195 25.6359 24.2086 26.093 23.4352C26.6695 22.6617 26.4586 21.6141 25.6852 21.0938L19.6875 17.1V8.4375C19.6875 7.50234 18.9352 6.75 17.9367 6.75C17.0648 6.75 16.2492 7.50234 16.2492 8.4375L16.3125 18Z" fill="#3E96FC"/>
</svg>
