<svg width="36" height="36" viewBox="0 0 36 36" fill="none" xmlns="http://www.w3.org/2000/svg">
<path d="M23.625 5.625C23.625 7.11684 23.0324 8.54758 21.9775 9.60248C20.9226 10.6574 19.4918 11.25 18 11.25C16.5082 11.25 15.0774 10.6574 14.0225 9.60248C12.9676 8.54758 12.375 7.11684 12.375 5.625C12.375 4.13316 12.9676 2.70242 14.0225 1.64752C15.0774 0.592632 16.5082 0 18 0C19.4918 0 20.9226 0.592632 21.9775 1.64752C23.0324 2.70242 23.625 4.13316 23.625 5.625ZM34.875 6.75C34.875 7.94347 34.4009 9.08807 33.557 9.93198C32.7131 10.7759 31.5685 11.25 30.375 11.25C29.1815 11.25 28.0369 10.7759 27.193 9.93198C26.3491 9.08807 25.875 7.94347 25.875 6.75C25.875 5.55653 26.3491 4.41193 27.193 3.56802C28.0369 2.72411 29.1815 2.25 30.375 2.25C31.5685 2.25 32.7131 2.72411 33.557 3.56802C34.4009 4.41193 34.875 5.55653 34.875 6.75ZM5.625 11.25C6.81847 11.25 7.96307 10.7759 8.80698 9.93198C9.65089 9.08807 10.125 7.94347 10.125 6.75C10.125 5.55653 9.65089 4.41193 8.80698 3.56802C7.96307 2.72411 6.81847 2.25 5.625 2.25C4.43153 2.25 3.28693 2.72411 2.44302 3.56802C1.59911 4.41193 1.125 5.55653 1.125 6.75C1.125 7.94347 1.59911 9.08807 2.44302 9.93198C3.28693 10.7759 4.43153 11.25 5.625 11.25ZM9 16.3125C9 14.76 10.26 13.5 11.8125 13.5H24.1875C25.74 13.5 27 14.76 27 16.3125V27C27 29.3869 26.0518 31.6761 24.364 33.364C22.6761 35.0518 20.3869 36 18 36C15.6131 36 13.3239 35.0518 11.636 33.364C9.94821 31.6761 9 29.3869 9 27V16.3125ZM6.75 16.3125C6.75 15.2708 7.065 14.3055 7.60275 13.5H2.8125C1.26 13.5 4.01356e-08 14.76 4.01356e-08 16.3125V24.75C-0.000104998 25.7133 0.205962 26.6654 0.604354 27.5424C1.00275 28.4194 1.58423 29.201 2.30975 29.8347C3.03526 30.4683 3.888 30.9394 4.81065 31.2161C5.7333 31.4929 6.70451 31.569 7.659 31.4392C7.05701 30.0368 6.7477 28.5262 6.75 27V16.3125ZM29.25 27C29.25 28.575 28.926 30.078 28.341 31.4392C29.2955 31.569 30.2667 31.4929 31.1894 31.2161C32.112 30.9394 32.9647 30.4683 33.6903 29.8347C34.4158 29.201 34.9973 28.4194 35.3956 27.5424C35.794 26.6654 36.0001 25.7133 36 24.75V16.3125C36 14.76 34.74 13.5 33.1875 13.5H28.3973C28.9373 14.3055 29.25 15.2708 29.25 16.3125V27Z" fill="#3E96FC"/>
</svg>
