<svg width="38" height="36" viewBox="0 0 38 36" fill="none" xmlns="http://www.w3.org/2000/svg">
<path d="M3.8 36H5.7V11.3684H3.8C2.79218 11.3684 1.82563 11.7677 1.11299 12.4783C0.400356 13.189 0 14.1529 0 15.1579V32.2105C0 33.2156 0.400356 34.1794 1.11299 34.8901C1.82563 35.6008 2.79218 36 3.8 36ZM34.2 11.3684H20.9L23.0318 4.98695C23.222 4.41742 23.2738 3.81097 23.183 3.21756C23.0921 2.62414 22.8612 2.06074 22.5093 1.57376C22.1573 1.08678 21.6943 0.690143 21.1586 0.416531C20.6228 0.142919 20.0295 0.000155582 19.4275 0H19L9.5 10.3036V36H30.4L37.8328 19.7128L38 18.9474V15.1579C38 14.1529 37.5996 13.189 36.887 12.4783C36.1744 11.7677 35.2078 11.3684 34.2 11.3684Z" fill="#3E96FC"/>
</svg>
