<svg width="32" height="36" viewBox="0 0 32 36" fill="none" xmlns="http://www.w3.org/2000/svg">
<path fill-rule="evenodd" clip-rule="evenodd" d="M30.6147 5.47653L18.7012 0.536441C16.9763 -0.178813 15.0237 -0.178814 13.2988 0.53644L1.38533 5.47653C0.544908 5.82502 0 6.62457 0 7.50925V19.1262C0 23.4115 2.13896 27.433 5.74302 29.9238L13.3429 35.1761C14.9324 36.2746 17.0676 36.2746 18.6571 35.1761L26.257 29.9238C29.861 27.433 32 23.4115 32 19.1262V7.50925C32 6.62457 31.4551 5.82502 30.6147 5.47653ZM24.642 14.0676C25.4306 13.1139 25.2708 11.7222 24.285 10.9592C23.2993 10.1962 21.8609 10.3508 21.0723 11.3046L13.5248 20.4328L10.7591 17.7569C9.86648 16.8932 8.41924 16.8932 7.52662 17.7569C6.63399 18.6206 6.63399 20.0208 7.52662 20.8845L11.1952 24.434C12.6401 25.832 15.0202 25.7045 16.2968 24.1606L24.642 14.0676Z" fill="#3E96FC"/>
</svg>
